<svg width="27" height="23" viewBox="0 0 27 23" fill="none" xmlns="http://www.w3.org/2000/svg">
<path d="M10.6522 21.3807L14.5317 1.37071C14.6442 0.793253 15.1174 0.400961 15.5891 0.493542C15.9936 0.572 16.2654 0.981552 16.2654 1.46015C16.2654 1.54018 16.2576 1.62334 16.2419 1.70651L12.3624 21.7165C12.2499 22.294 11.7767 22.6863 11.305 22.5937C10.9005 22.5153 10.6288 22.1057 10.6288 21.6271C10.6288 21.5471 10.6366 21.4639 10.6522 21.3807Z" fill="url(#paint0_linear_0_1)"/>
<path d="M12.4333 4.55768C12.3474 5.00333 11.9585 5.325 11.5071 5.325H7.42296L7.4058 5.32657L2.02378 11.542L7.41518 17.7685L7.42296 17.7607H8.72866C9.32214 17.7607 9.76882 18.3052 9.65481 18.8905C9.56892 19.3361 9.18003 19.6578 8.72866 19.6578H7.42296C6.91693 19.6578 6.42496 19.457 6.07357 19.1054L0.59785 12.7848C0.272994 12.4459 0.0933838 12.0065 0.0933838 11.542C0.0933838 11.0776 0.271432 10.6382 0.59785 10.3009L6.02673 4.03046L6.07514 3.97868C6.42809 3.62874 6.92005 3.42789 7.42452 3.42789H11.5087C12.1006 3.42789 12.5473 3.9724 12.4333 4.55768Z" fill="url(#paint1_linear_0_1)"/>
<path d="M20.8196 3.98037L22.5829 6.01557H25.188C25.5378 6.01557 25.8221 6.30117 25.8221 6.65267V7.40272C25.8221 7.75422 25.5378 8.03982 25.188 8.03982H24.3352L26.2953 10.3025C26.6201 10.6415 26.7998 11.0809 26.7998 11.5437C26.7998 12.0082 26.6217 12.4476 26.2953 12.785L20.8664 19.0538L20.818 19.1056C20.4651 19.4571 19.9731 19.6579 19.4671 19.6579H15.3845C14.791 19.6579 14.3443 19.1134 14.4567 18.5281C14.5427 18.0825 14.9315 17.7608 15.3845 17.7608L19.4858 17.7592L24.8678 11.5437L19.478 5.31731L19.4686 5.32512H18.1629C17.5694 5.32512 17.1228 4.78063 17.2368 4.19534C17.3227 3.74969 17.7116 3.42801 18.1629 3.42801H19.4686C19.9747 3.42801 20.4666 3.63044 20.8196 3.98037Z" fill="url(#paint2_linear_0_1)"/>
<path d="M19.2314 9.70143L20.5652 11.2408C20.6448 11.3239 20.6886 11.4306 20.6886 11.5436C20.6886 11.6566 20.6448 11.7633 20.5652 11.8465L19.2423 13.3733L19.2314 13.3858C19.1455 13.4706 19.0253 13.5208 18.9019 13.5208H17.9897C17.7711 13.5208 17.5946 13.3435 17.5946 13.1238V9.96347C17.5946 9.74379 17.7711 9.56647 17.9897 9.56647H18.9019C19.0253 9.56647 19.1455 9.61511 19.2314 9.70143Z" fill="url(#paint3_linear_0_1)"/>
<path d="M8.35367 13.3761L6.73406 12.6511C6.66689 12.6213 6.62317 12.5538 6.62317 12.4801V10.6049C6.62317 10.5312 6.66689 10.4637 6.73406 10.4339L8.35367 9.70893C8.45674 9.66343 8.57232 9.66343 8.6754 9.70893L10.295 10.4339C10.3621 10.4637 10.4059 10.5312 10.4059 10.6049V12.4801C10.4059 12.5538 10.3621 12.6213 10.295 12.6511L8.6754 13.3761C8.57232 13.4231 8.45518 13.4231 8.35367 13.3761Z" fill="url(#paint4_linear_0_1)"/>
<defs>
<linearGradient id="paint0_linear_0_1" x1="-5.89945" y1="23.0679" x2="28.6296" y2="2.69159" gradientUnits="userSpaceOnUse">
<stop offset="2.29095e-07" stop-color="#6317F7"/>
<stop offset="1" stop-color="#18FFFF"/>
</linearGradient>
<linearGradient id="paint1_linear_0_1" x1="-7.33285" y1="20.6407" x2="27.1962" y2="0.264269" gradientUnits="userSpaceOnUse">
<stop offset="2.29095e-07" stop-color="#6317F7"/>
<stop offset="1" stop-color="#18FFFF"/>
</linearGradient>
<linearGradient id="paint2_linear_0_1" x1="-4.46862" y1="25.4954" x2="30.0605" y2="5.11907" gradientUnits="userSpaceOnUse">
<stop offset="2.29095e-07" stop-color="#6317F7"/>
<stop offset="1" stop-color="#18FFFF"/>
</linearGradient>
<linearGradient id="paint3_linear_0_1" x1="-4.59643" y1="25.2757" x2="29.9326" y2="4.89939" gradientUnits="userSpaceOnUse">
<stop offset="2.29095e-07" stop-color="#6317F7"/>
<stop offset="1" stop-color="#18FFFF"/>
</linearGradient>
<linearGradient id="paint4_linear_0_1" x1="-7.18339" y1="20.8938" x2="27.3457" y2="0.517451" gradientUnits="userSpaceOnUse">
<stop offset="2.29095e-07" stop-color="#6317F7"/>
<stop offset="1" stop-color="#18FFFF"/>
</linearGradient>
</defs>
</svg>
