<svg width="24" height="24" viewBox="0 0 24 24" fill="none" xmlns="http://www.w3.org/2000/svg">
<path d="M12 3.96643V3.02129" stroke="#323232" stroke-width="1.5" stroke-linecap="round" stroke-linejoin="round"/>
<path d="M18.0025 5.99756L18.9476 5.05242" stroke="#323232" stroke-width="1.5" stroke-linecap="round" stroke-linejoin="round"/>
<path d="M5.9975 5.99756L5.05236 5.05242" stroke="#323232" stroke-width="1.5" stroke-linecap="round" stroke-linejoin="round"/>
<path d="M20.9787 12H21.9239" stroke="#323232" stroke-width="1.5" stroke-linecap="round" stroke-linejoin="round"/>
<path d="M2.05112 12H2.99625" stroke="#323232" stroke-width="1.5" stroke-linecap="round" stroke-linejoin="round"/>
<path d="M14.0008 13.0004V15.0012" stroke="#323232" stroke-width="1.5" stroke-linecap="round" stroke-linejoin="round"/>
<path d="M17.0021 18.0025V12.7544C16.9325 10.0605 14.694 7.93213 12 7.99833C9.30602 7.93213 7.06754 10.0605 6.99792 12.7544V18.0025" stroke="#323232" stroke-width="1.5" stroke-linecap="round" stroke-linejoin="round"/>
<path fill-rule="evenodd" clip-rule="evenodd" d="M17.6479 18.0024H6.26132C5.82224 18.0024 5.43447 18.2887 5.30522 18.7084L4.99709 19.7088C4.90362 20.0122 4.95976 20.3421 5.14837 20.5975C5.33697 20.8529 5.63564 21.0037 5.95318 21.0037H18.0017C18.3264 21.0037 18.631 20.846 18.8185 20.5808C19.006 20.3157 19.0531 19.976 18.9449 19.6698L18.5911 18.6693C18.4498 18.2697 18.0718 18.0024 17.6479 18.0024Z" stroke="#323232" stroke-width="1.5" stroke-linecap="round" stroke-linejoin="round"/>
</svg>
