<svg width="24" height="24" viewBox="0 0 24 24" fill="none" xmlns="http://www.w3.org/2000/svg">
<path d="M20.2015 8.70564L20.2023 8.70599C20.2623 8.73226 20.3165 8.7701 20.3618 8.81733C20.4071 8.86456 20.4427 8.92026 20.4665 8.98126C20.4903 9.04224 20.5018 9.10732 20.5004 9.17278C20.499 9.23822 20.4847 9.30275 20.4583 9.36267L20.458 9.36341L19.935 10.5574L19.7276 11.0308L20.2077 11.2224L21.2789 11.6499L19.6504 15.7212L18.4136 15.2267L17.9647 15.0473L17.7702 15.4899L17.4582 16.1999L17.4582 16.2C17.4052 16.3208 17.3066 16.4157 17.1839 16.4641C17.0612 16.5126 16.9244 16.5105 16.8032 16.4585L16.8029 16.4584L11.5979 14.2284L11.1271 14.0267L10.9368 14.5023L9.71478 17.5563L9.71443 17.5572C9.48626 18.1306 8.94155 18.5 8.323 18.5H4H3.5V19V21.5H2.5V14.5H3.5V17V17.5H4H8.323H8.66152L8.78724 17.1857L10.0272 14.0857L10.2085 13.6327L9.75998 13.4405L3.72205 10.8525C3.35666 10.6958 3.06835 10.4005 2.92041 10.0315C2.77252 9.66264 2.77696 9.25017 2.93275 8.88457C2.93281 8.88443 2.93286 8.88429 2.93292 8.88416L5.14252 3.73109C5.14253 3.73108 5.14253 3.73107 5.14254 3.73106C5.45843 2.99452 6.38706 2.62412 7.12654 2.94964C7.12655 2.94964 7.12655 2.94964 7.12655 2.94964L20.2015 8.70564ZM16.285 15.1496L16.7406 15.3448L16.9398 14.891L19.1408 9.87803L19.3416 9.42066L18.8845 9.2194L6.72246 3.8654L6.26033 3.66196L6.06143 4.12606L3.85343 9.27806L3.65646 9.73764L4.11605 9.93459L16.285 15.1496Z" stroke="#323232"/>
</svg>
