<svg width="24" height="24" viewBox="0 0 24 24" fill="none" xmlns="http://www.w3.org/2000/svg">
<g clip-path="url(#clip0_1245_85059)">
<path d="M20.3219 5.01097L20.322 5.01084L14.6332 3.30459L13.4255 2.94235L14.5533 2.37846L17.3644 0.972897C17.3646 0.972814 17.3647 0.972732 17.3649 0.972649C17.4239 0.942766 17.4686 0.890732 17.4893 0.827925C17.5101 0.764943 17.505 0.696286 17.4752 0.637056C17.4454 0.577829 17.3932 0.532882 17.3302 0.512103C17.2672 0.491324 17.1986 0.496415 17.1394 0.526257L17.1379 0.526988L12.786 2.70199L12.6866 2.75168L12.5755 2.75456C10.7499 2.802 9.01499 3.56022 7.74013 4.86776C6.46535 6.17523 5.75129 7.92867 5.75 9.75473L20.3219 5.01097ZM20.3219 5.01097L20.333 5.014M20.3219 5.01097L20.333 5.014M20.333 5.014C20.3651 5.02284 20.3951 5.03801 20.4213 5.05863C20.4475 5.07924 20.4693 5.10487 20.4854 5.13403C20.5015 5.16319 20.5117 5.19527 20.5152 5.22839C20.5188 5.26153 20.5157 5.29503 20.5061 5.32694C20.4965 5.35886 20.4806 5.38853 20.4594 5.41421C20.4382 5.43991 20.4121 5.4611 20.3826 5.47655L20.6144 5.91956L20.3826 5.47655C20.353 5.492 20.3207 5.50139 20.2875 5.50417C20.2543 5.50696 20.2209 5.50307 20.1892 5.49275L20.1893 5.49262L20.178 5.48926L13.6437 3.52895L13 3.33584V4.00786V5.3138V5.73585L13.4161 5.8067C14.3477 5.96535 15.1932 6.44819 15.8033 7.1699C16.4132 7.89143 16.7485 8.80528 16.75 9.75005C16.75 9.75028 16.75 9.75052 16.75 9.75075L16.75 21.75C16.75 22.0153 16.6446 22.2696 16.4571 22.4572C16.2696 22.6447 16.0152 22.75 15.75 22.75H9.75C9.48478 22.75 9.23043 22.6447 9.04289 22.4572C8.85536 22.2696 8.75 22.0153 8.75 21.75V16.5V16H8.25H6.75H6.25M20.333 5.014L6.25 16M6.25 16V16.5M6.25 16V16.5M6.25 16.5V19.5C6.25 19.5663 6.22366 19.6299 6.17678 19.6768C6.12989 19.7237 6.0663 19.75 6 19.75C5.9337 19.75 5.87011 19.7237 5.82323 19.6768C5.77634 19.6299 5.75 19.5663 5.75 19.5V9.75489L6.25 16.5ZM6.25 15V15.5H6.75H8.25H8.75V15V9.75042C8.75141 8.80552 9.08673 7.89153 9.69673 7.1699C10.3068 6.44819 11.1523 5.96535 12.0839 5.8067L12.5 5.73585V5.3138V3.7988V3.2313L11.937 3.30278C10.3673 3.50208 8.92401 4.26656 7.87724 5.45315C6.83047 6.63974 6.25197 8.16711 6.25 9.74942V9.75005V15ZM15.75 22.25H16.25V21.75V16.5V16H15.75H9.75H9.25V16.5V21.75V22.25H9.75H15.75ZM15.75 15.5H16.25V15V9.75005C16.25 8.82179 15.8812 7.93155 15.2249 7.27517C14.5685 6.61879 13.6783 6.25005 12.75 6.25005C11.8217 6.25005 10.9315 6.61879 10.2751 7.27517C9.61875 7.93155 9.25 8.82179 9.25 9.75005V15V15.5H9.75H15.75Z" stroke="#323232"/>
</g>
<defs>
<clipPath id="clip0_1245_85059">
<rect width="24" height="24" fill="white"/>
</clipPath>
</defs>
</svg>
