<svg width="28" height="28" viewBox="0 0 28 28" fill="none" xmlns="http://www.w3.org/2000/svg">
<path d="M16.3334 12.8335H9.33341M11.6667 17.5002H9.33341M18.6667 8.16683H9.33341M23.3334 7.9335V20.0668C23.3334 22.027 23.3334 23.0071 22.9519 23.7558C22.6164 24.4144 22.0809 24.9498 21.4224 25.2854C20.6737 25.6668 19.6936 25.6668 17.7334 25.6668H10.2667C8.30656 25.6668 7.32647 25.6668 6.57778 25.2854C5.91921 24.9498 5.38378 24.4144 5.04823 23.7558C4.66675 23.0071 4.66675 22.027 4.66675 20.0668V7.9335C4.66675 5.97331 4.66675 4.99322 5.04823 4.24453C5.38378 3.58596 5.91921 3.05053 6.57778 2.71497C7.32647 2.3335 8.30656 2.3335 10.2667 2.3335H17.7334C19.6936 2.3335 20.6737 2.3335 21.4224 2.71497C22.0809 3.05053 22.6164 3.58596 22.9519 4.24453C23.3334 4.99322 23.3334 5.97331 23.3334 7.9335Z" stroke="black" stroke-width="1.75" stroke-linecap="round" stroke-linejoin="round"/>
</svg>
