<svg width="76" height="76" viewBox="0 0 76 76" fill="none" xmlns="http://www.w3.org/2000/svg">
<g filter="url(#filter0_dd_35_9323)">
<circle cx="38" cy="38" r="30" fill="white"/>
</g>
<path d="M25.9999 50.0013V38.0013C25.9999 37.2649 26.5969 36.668 27.3333 36.668H31.3333" stroke="#202020" stroke-width="2" stroke-linecap="round" stroke-linejoin="round"/>
<path d="M36.6666 32.6668V28.002C36.6666 27.346 36.9883 26.7317 37.5274 26.3581C38.0666 25.9845 38.7547 25.899 39.3689 26.1293L49.1348 29.7915C49.6552 29.9867 50 30.4842 50 31.04V50.0002" stroke="#202020" stroke-width="2" stroke-linecap="round" stroke-linejoin="round"/>
<path d="M31.3333 50.0013V34.0013C31.3333 33.2649 31.9303 32.668 32.6666 32.668H42C42.7364 32.668 43.3333 33.2649 43.3333 34.0013V50.0013" stroke="#202020" stroke-width="2" stroke-linecap="round" stroke-linejoin="round"/>
<path d="M51.3333 50.0007H24.6666" stroke="#202020" stroke-width="2" stroke-linecap="round" stroke-linejoin="round"/>
<path d="M35.3333 45.3346H39.3333" stroke="#202020" stroke-width="2" stroke-linecap="round" stroke-linejoin="round"/>
<path d="M35.3333 41.3346H39.3333" stroke="#202020" stroke-width="2" stroke-linecap="round" stroke-linejoin="round"/>
<path d="M35.3333 37.3346H39.3333" stroke="#202020" stroke-width="2" stroke-linecap="round" stroke-linejoin="round"/>
<defs>
<filter id="filter0_dd_35_9323" x="-9.53674e-07" y="-9.53674e-07" width="76" height="76" filterUnits="userSpaceOnUse" color-interpolation-filters="sRGB">
<feFlood flood-opacity="0" result="BackgroundImageFix"/>
<feColorMatrix in="SourceAlpha" type="matrix" values="0 0 0 0 0 0 0 0 0 0 0 0 0 0 0 0 0 0 127 0" result="hardAlpha"/>
<feOffset dx="-2" dy="-2"/>
<feGaussianBlur stdDeviation="3"/>
<feColorMatrix type="matrix" values="0 0 0 0 0.992157 0 0 0 0 1 0 0 0 0 1 0 0 0 0.8 0"/>
<feBlend mode="normal" in2="BackgroundImageFix" result="effect1_dropShadow_35_9323"/>
<feColorMatrix in="SourceAlpha" type="matrix" values="0 0 0 0 0 0 0 0 0 0 0 0 0 0 0 0 0 0 127 0" result="hardAlpha"/>
<feOffset dx="2" dy="2"/>
<feGaussianBlur stdDeviation="3"/>
<feColorMatrix type="matrix" values="0 0 0 0 0.733333 0 0 0 0 0.764706 0 0 0 0 0.807843 0 0 0 0.6 0"/>
<feBlend mode="normal" in2="effect1_dropShadow_35_9323" result="effect2_dropShadow_35_9323"/>
<feBlend mode="normal" in="SourceGraphic" in2="effect2_dropShadow_35_9323" result="shape"/>
</filter>
</defs>
</svg>
