<svg width="24" height="24" viewBox="0 0 24 24" fill="none" xmlns="http://www.w3.org/2000/svg">
<path fill-rule="evenodd" clip-rule="evenodd" d="M6 21H4C3.448 21 3 20.552 3 20V14C3 13.448 3.448 13 4 13H6C6.552 13 7 13.448 7 14V20C7 20.552 6.552 21 6 21Z" stroke="url(#paint0_linear_35_9334)" stroke-width="1.5" stroke-linecap="round" stroke-linejoin="round"/>
<path d="M13 16.9991H15.333C15.766 16.9991 16.187 16.8591 16.533 16.5991L18.949 14.7871C19.552 14.3351 20.396 14.3951 20.929 14.9281V14.9281C21.521 15.5201 21.521 16.4791 20.929 17.0701L18.856 19.1431C18.298 19.7011 17.586 20.0821 16.812 20.2371L13.882 20.8231C13.301 20.9391 12.702 20.9251 12.127 20.7811L9.477 20.1191C9.16 20.0391 8.835 19.9991 8.508 19.9991H7" stroke="url(#paint1_linear_35_9334)" stroke-width="1.5" stroke-linecap="round" stroke-linejoin="round"/>
<path d="M13 17H14.485C15.322 17 16 16.322 16 15.485V15.182C16 14.487 15.527 13.881 14.853 13.713L12.561 13.14C12.188 13.047 11.806 13 11.422 13V13C10.495 13 9.588 13.274 8.817 13.789L7 15" stroke="url(#paint2_linear_35_9334)" stroke-width="1.5" stroke-linecap="round" stroke-linejoin="round"/>
<path d="M17.1687 5.15545C18.2771 6.26376 18.2771 8.06068 17.1687 9.16899C16.0604 10.2773 14.2635 10.2773 13.1552 9.16899C12.0469 8.06068 12.0469 6.26376 13.1552 5.15545C14.2635 4.04714 16.0604 4.04714 17.1687 5.15545" stroke="url(#paint3_linear_35_9334)" stroke-width="1.5" stroke-linecap="round" stroke-linejoin="round"/>
<path d="M14.631 4.375C14.538 3.81 14.28 3.267 13.844 2.831C12.736 1.723 10.939 1.723 9.831 2.831C8.723 3.939 8.723 5.736 9.831 6.844C10.521 7.534 11.477 7.793 12.368 7.624" stroke="url(#paint4_linear_35_9334)" stroke-width="1.5" stroke-linecap="round" stroke-linejoin="round"/>
<defs>
<linearGradient id="paint0_linear_35_9334" x1="5" y1="13" x2="5" y2="21" gradientUnits="userSpaceOnUse">
<stop stop-color="#6B349A"/>
<stop offset="1" stop-color="#4C37C3"/>
</linearGradient>
<linearGradient id="paint1_linear_35_9334" x1="14.1865" y1="14.4844" x2="14.1865" y2="20.9007" gradientUnits="userSpaceOnUse">
<stop stop-color="#6B349A"/>
<stop offset="1" stop-color="#4C37C3"/>
</linearGradient>
<linearGradient id="paint2_linear_35_9334" x1="11.5" y1="13" x2="11.5" y2="17" gradientUnits="userSpaceOnUse">
<stop stop-color="#6B349A"/>
<stop offset="1" stop-color="#4C37C3"/>
</linearGradient>
<linearGradient id="paint3_linear_35_9334" x1="15.162" y1="4.32422" x2="15.162" y2="10.0002" gradientUnits="userSpaceOnUse">
<stop stop-color="#6B349A"/>
<stop offset="1" stop-color="#4C37C3"/>
</linearGradient>
<linearGradient id="paint4_linear_35_9334" x1="11.8155" y1="2" x2="11.8155" y2="7.67403" gradientUnits="userSpaceOnUse">
<stop stop-color="#6B349A"/>
<stop offset="1" stop-color="#4C37C3"/>
</linearGradient>
</defs>
</svg>
