<svg width="20" height="20" viewBox="0 0 20 20" fill="none" xmlns="http://www.w3.org/2000/svg">
<path d="M17.5 9.40918C17.5 13.1917 14.1267 16.2275 10 16.2275C9.46584 16.2275 8.94584 16.175 8.4425 16.0783" stroke="white" stroke-width="1.5" stroke-linecap="round" stroke-linejoin="round"/>
<path d="M5.49917 14.855C3.68333 13.6133 2.5 11.645 2.5 9.40918" stroke="white" stroke-width="1.5" stroke-linecap="round" stroke-linejoin="round"/>
<path d="M5.49913 14.8555C5.4983 15.5671 5.49996 16.5271 5.49996 17.5346" stroke="white" stroke-width="1.5" stroke-linecap="round" stroke-linejoin="round"/>
<path d="M2.5 9.4093C2.5 5.6268 5.87333 2.5918 10 2.5918C14.1267 2.5918 17.5 5.62763 17.5 9.41013" stroke="white" stroke-width="1.5" stroke-linecap="round" stroke-linejoin="round"/>
<path d="M8.44167 16.0752L5.5 17.5335" stroke="white" stroke-width="1.5" stroke-linecap="round" stroke-linejoin="round"/>
<path d="M10.1474 9.43635C10.2287 9.5177 10.2287 9.64961 10.1474 9.73097C10.066 9.81233 9.93409 9.81233 9.85273 9.73097C9.77137 9.64961 9.77137 9.5177 9.85273 9.43635C9.93409 9.35499 10.066 9.35499 10.1474 9.43635" stroke="white" stroke-width="1.5" stroke-linecap="round" stroke-linejoin="round"/>
<path d="M13.4806 9.43635C13.562 9.5177 13.562 9.64961 13.4806 9.73097C13.3992 9.81233 13.2673 9.81233 13.186 9.73097C13.1046 9.64961 13.1046 9.5177 13.186 9.43635C13.2673 9.35499 13.3992 9.35499 13.4806 9.43635" stroke="white" stroke-width="1.5" stroke-linecap="round" stroke-linejoin="round"/>
<path d="M6.81398 9.43635C6.89534 9.5177 6.89534 9.64961 6.81398 9.73097C6.73262 9.81233 6.60071 9.81233 6.51935 9.73097C6.43799 9.64961 6.43799 9.5177 6.51935 9.43635C6.60071 9.35499 6.73262 9.35499 6.81398 9.43635" stroke="white" stroke-width="1.5" stroke-linecap="round" stroke-linejoin="round"/>
</svg>
