<svg width="25" height="24" viewBox="0 0 25 24" fill="none" xmlns="http://www.w3.org/2000/svg">
<path d="M14.3324 5C14.3334 3.895 12.0934 3 9.33337 3C6.57337 3 4.33537 3.896 4.33337 5C4.33337 6.105 6.57137 7 9.33337 7C12.0954 7 14.3334 6.105 14.3334 5" stroke="url(#paint0_linear_35_9343)" stroke-width="1.5" stroke-linecap="round" stroke-linejoin="round"/>
<path d="M14.3334 5V12.76" stroke="url(#paint1_linear_35_9343)" stroke-width="1.5" stroke-linecap="round" stroke-linejoin="round"/>
<path d="M4.33435 9C4.33435 10.105 6.57235 11 9.33435 11C12.0964 11 14.3344 10.105 14.3344 9" stroke="url(#paint2_linear_35_9343)" stroke-width="1.5" stroke-linecap="round" stroke-linejoin="round"/>
<path d="M20.0154 13.3177C21.7724 15.0747 21.7724 17.9247 20.0154 19.6817C18.2584 21.4387 15.4084 21.4387 13.6514 19.6817C11.8944 17.9247 11.8944 15.0747 13.6514 13.3177C15.4084 11.5608 18.2584 11.5608 20.0154 13.3177" stroke="url(#paint3_linear_35_9343)" stroke-width="1.5" stroke-linecap="round" stroke-linejoin="round"/>
<path d="M12.8384 14.425C11.9364 14.78 10.6994 15 9.33335 15C6.57235 15 4.33435 14.105 4.33435 13" stroke="url(#paint4_linear_35_9343)" stroke-width="1.5" stroke-linecap="round" stroke-linejoin="round"/>
<path d="M12.7784 18.444C11.8814 18.787 10.6724 19 9.33337 19C6.57237 19 4.33437 18.105 4.33337 17V5" stroke="url(#paint5_linear_35_9343)" stroke-width="1.5" stroke-linecap="round" stroke-linejoin="round"/>
<defs>
<linearGradient id="paint0_linear_35_9343" x1="9.33337" y1="3" x2="9.33337" y2="7" gradientUnits="userSpaceOnUse">
<stop stop-color="#6B349A"/>
<stop offset="1" stop-color="#4C37C3"/>
</linearGradient>
<linearGradient id="paint1_linear_35_9343" x1="14.3334" y1="5" x2="14.3334" y2="12.76" gradientUnits="userSpaceOnUse">
<stop stop-color="#6B349A"/>
<stop offset="1" stop-color="#4C37C3"/>
</linearGradient>
<linearGradient id="paint2_linear_35_9343" x1="9.33435" y1="9" x2="9.33435" y2="11" gradientUnits="userSpaceOnUse">
<stop stop-color="#6B349A"/>
<stop offset="1" stop-color="#4C37C3"/>
</linearGradient>
<linearGradient id="paint3_linear_35_9343" x1="16.8334" y1="12" x2="16.8334" y2="20.9995" gradientUnits="userSpaceOnUse">
<stop stop-color="#6B349A"/>
<stop offset="1" stop-color="#4C37C3"/>
</linearGradient>
<linearGradient id="paint4_linear_35_9343" x1="8.58635" y1="13" x2="8.58635" y2="15" gradientUnits="userSpaceOnUse">
<stop stop-color="#6B349A"/>
<stop offset="1" stop-color="#4C37C3"/>
</linearGradient>
<linearGradient id="paint5_linear_35_9343" x1="8.55587" y1="5" x2="8.55587" y2="19" gradientUnits="userSpaceOnUse">
<stop stop-color="#6B349A"/>
<stop offset="1" stop-color="#4C37C3"/>
</linearGradient>
</defs>
</svg>
