<svg width="25" height="24" viewBox="0 0 25 24" fill="none" xmlns="http://www.w3.org/2000/svg">
<path fill-rule="evenodd" clip-rule="evenodd" d="M19.5 21H5.5C4.395 21 3.5 20.105 3.5 19V5C3.5 3.895 4.395 3 5.5 3H19.5C20.605 3 21.5 3.895 21.5 5V19C21.5 20.105 20.605 21 19.5 21Z" stroke="#202020" stroke-width="1.5" stroke-linecap="round" stroke-linejoin="round"/>
<path d="M12.5 13.25V13C12.5 12.183 13.005 11.74 13.511 11.4C14.005 11.067 14.5 10.633 14.5 9.83301C14.5 8.72801 13.605 7.83301 12.5 7.83301C11.395 7.83301 10.5 8.72801 10.5 9.83301" stroke="#202020" stroke-width="1.5" stroke-linecap="round" stroke-linejoin="round"/>
<path d="M12.499 16C12.361 16 12.249 16.112 12.25 16.25C12.25 16.388 12.362 16.5 12.5 16.5C12.638 16.5 12.75 16.388 12.75 16.25C12.75 16.112 12.638 16 12.499 16" stroke="#202020" stroke-width="1.5" stroke-linecap="round" stroke-linejoin="round"/>
</svg>
