<svg width="24" height="24" viewBox="0 0 24 24" fill="none" xmlns="http://www.w3.org/2000/svg">
<path d="M15.0013 2.99622H9.82711C9.29689 2.99622 8.78768 3.2073 8.41252 3.58246L7.99835 3.99663" stroke="#323232" stroke-width="1.5" stroke-linecap="round" stroke-linejoin="round"/>
<path fill-rule="evenodd" clip-rule="evenodd" d="M14.501 8.99869H9.49896V6.99785C9.49896 6.44562 9.94715 5.99744 10.4994 5.99744H13.5006C14.0529 5.99744 14.501 6.44562 14.501 6.99785V8.99869Z" stroke="#323232" stroke-width="1.5" stroke-linecap="round" stroke-linejoin="round"/>
<path fill-rule="evenodd" clip-rule="evenodd" d="M14.287 8.99866H9.71305C7.66119 8.99866 5.9975 10.6624 5.9975 12.7142V20.0032C5.9975 21.1087 6.89287 22.0041 7.99833 22.0041H16.0017C17.1071 22.0041 18.0025 21.1087 18.0025 20.0032V12.7142C18.0025 10.6624 16.3388 8.99866 14.287 8.99866Z" stroke="#323232" stroke-width="1.5" stroke-linecap="round" stroke-linejoin="round"/>
<path d="M12 2.99622V5.99747" stroke="#323232" stroke-width="1.5" stroke-linecap="round" stroke-linejoin="round"/>
</svg>
