<svg width="24" height="24" viewBox="0 0 24 24" fill="none" xmlns="http://www.w3.org/2000/svg">
<path d="M9 8V8C9 5.239 11.239 3 14 3V3C16.761 3 19 5.239 19 8V21" stroke="#323232" stroke-width="1.5" stroke-linecap="round" stroke-linejoin="round"/>
<path fill-rule="evenodd" clip-rule="evenodd" d="M11.416 12.748H6.58401C5.50401 12.748 4.74101 11.69 5.08301 10.665V10.665C5.61301 9.073 7.10201 8 8.78001 8H9.22001C10.897 8 12.387 9.073 12.917 10.665V10.665C13.259 11.69 12.496 12.748 11.416 12.748V12.748Z" stroke="#323232" stroke-width="1.5" stroke-linecap="round" stroke-linejoin="round"/>
<path d="M9 20V21" stroke="#323232" stroke-width="1.5" stroke-linecap="round" stroke-linejoin="round"/>
<path d="M9 17V16" stroke="#323232" stroke-width="1.5" stroke-linecap="round" stroke-linejoin="round"/>
<path d="M15 19.65L14.45 18.82" stroke="#323232" stroke-width="1.5" stroke-linecap="round" stroke-linejoin="round"/>
<path d="M12.24 15.5L12.79 16.33" stroke="#323232" stroke-width="1.5" stroke-linecap="round" stroke-linejoin="round"/>
<path d="M5.76005 15.5L5.21005 16.33" stroke="#323232" stroke-width="1.5" stroke-linecap="round" stroke-linejoin="round"/>
<path d="M3.55002 18.82L3.00002 19.65" stroke="#323232" stroke-width="1.5" stroke-linecap="round" stroke-linejoin="round"/>
</svg>
