<svg width="24" height="24" viewBox="0 0 24 24" fill="none" xmlns="http://www.w3.org/2000/svg">
<path d="M15.0013 2.99622H9.82711C9.2965 2.99633 8.78767 3.2072 8.41252 3.58246L7.99835 3.99663" stroke="#323232" stroke-width="1.5" stroke-linecap="round" stroke-linejoin="round"/>
<path fill-rule="evenodd" clip-rule="evenodd" d="M14.501 8.99869H9.49896V6.99785C9.49896 6.44534 9.94686 5.99744 10.4994 5.99744H13.5006C14.0531 5.99744 14.501 6.44534 14.501 6.99785V8.99869Z" stroke="#323232" stroke-width="1.5" stroke-linecap="round" stroke-linejoin="round"/>
<path d="M18.0025 12.7143C18.0025 11.7289 17.611 10.7838 16.9142 10.087C16.2174 9.39024 15.2724 8.99878 14.287 8.99878H9.71305C7.661 8.99878 5.9975 10.6623 5.9975 12.7143V19.0029C5.9975 20.108 6.8933 21.0038 7.99833 21.0038H13.0004" stroke="#323232" stroke-width="1.5" stroke-linecap="round" stroke-linejoin="round"/>
<path d="M12 2.99622V5.99747" stroke="#323232" stroke-width="1.5" stroke-linecap="round" stroke-linejoin="round"/>
<path fill-rule="evenodd" clip-rule="evenodd" d="M18.3186 15.9496L19.5802 17.6373C20.0603 18.2735 20.139 19.1266 19.7835 19.8399C19.428 20.5533 18.6995 21.004 17.9025 21.0037V21.0037C17.1044 21.0063 16.3737 20.5564 16.0167 19.8426C15.6597 19.1288 15.738 18.2744 16.2188 17.6373L17.4813 15.9496C17.5808 15.8189 17.7357 15.7422 17.9 15.7422C18.0642 15.7422 18.2191 15.8189 18.3186 15.9496V15.9496Z" stroke="#323232" stroke-width="1.5" stroke-linecap="round" stroke-linejoin="round"/>
</svg>
