<svg width="24" height="24" viewBox="0 0 24 24" fill="none" xmlns="http://www.w3.org/2000/svg">
<path fill-rule="evenodd" clip-rule="evenodd" d="M15.0823 14H17.9177C18.3219 14.0084 18.6894 13.7669 18.8421 13.3926C19.0527 12.8161 19.0526 12.1837 18.842 11.6073C18.6883 11.2328 18.32 10.9915 17.9153 11H15.0847C14.68 10.9915 14.3117 11.2328 14.158 11.6073C13.9474 12.1838 13.9473 12.8161 14.1579 13.3926C14.3106 13.7669 14.6781 14.0084 15.0823 14V14Z" stroke="#323232" stroke-width="1.5" stroke-linecap="round" stroke-linejoin="round"/>
<path fill-rule="evenodd" clip-rule="evenodd" d="M6.08228 14H8.91773C9.32188 14.0084 9.68943 13.7669 9.84208 13.3926C10.0527 12.8161 10.0526 12.1837 9.842 11.6073C9.68828 11.2328 9.32004 10.9915 8.91533 11H6.08467C5.67995 10.9915 5.3117 11.2328 5.158 11.6073C4.94736 12.1838 4.94733 12.8161 5.15792 13.3926C5.31057 13.7669 5.67812 14.0084 6.08228 14V14Z" stroke="#323232" stroke-width="1.5" stroke-linecap="round" stroke-linejoin="round"/>
<path d="M2 21V19" stroke="#323232" stroke-width="1.5" stroke-linecap="round" stroke-linejoin="round"/>
<path d="M22 21V19" stroke="#323232" stroke-width="1.5" stroke-linecap="round" stroke-linejoin="round"/>
<path fill-rule="evenodd" clip-rule="evenodd" d="M3 7H21C22.1046 7 23 7.89543 23 9V18C23 18.5523 22.5523 19 22 19H2C1.44772 19 1 18.5523 1 18V9C1 7.89543 1.89543 7 3 7Z" stroke="#323232" stroke-width="1.5" stroke-linecap="round" stroke-linejoin="round"/>
<path d="M1 14H23" stroke="#323232" stroke-width="1.5" stroke-linecap="round" stroke-linejoin="round"/>
</svg>
