<svg width="24" height="24" viewBox="0 0 24 24" fill="none" xmlns="http://www.w3.org/2000/svg">
<path d="M12 10.0001V7.90744L13.3823 7.13944C14.0722 6.75624 14.5 6.02917 14.5 5.24006C14.4183 3.92777 13.2929 2.92737 11.9801 3.00006C10.807 2.95138 9.76537 3.74433 9.5 4.88799" stroke="#323232" stroke-width="1.5" stroke-linecap="round" stroke-linejoin="round"/>
<path fill-rule="evenodd" clip-rule="evenodd" d="M7 16.5H17C17.5523 16.5 18 16.9477 18 17.5V21H6V17.5C6 16.9477 6.44772 16.5 7 16.5Z" stroke="#323232" stroke-width="1.5" stroke-linecap="round" stroke-linejoin="round"/>
<path d="M18 18H19.2386C20.0154 18.0039 20.7016 17.4949 20.9234 16.7504C21.1451 16.006 20.8491 15.2044 20.1968 14.7827L13.4783 10.4362C12.5786 9.8546 11.4214 9.8546 10.5216 10.4362L3.80322 14.7827C3.15085 15.2044 2.85489 16.006 3.07662 16.7504C3.29835 17.4949 3.98462 18.0039 4.76142 18H6" stroke="#323232" stroke-width="1.5" stroke-linecap="round" stroke-linejoin="round"/>
</svg>
