<svg width="24" height="24" viewBox="0 0 24 24" fill="none" xmlns="http://www.w3.org/2000/svg">
<path d="M14.4749 8.52513C15.8418 9.89197 15.8418 12.108 14.4749 13.4749C13.1081 14.8417 10.892 14.8417 9.52516 13.4749C8.15832 12.108 8.15832 9.89197 9.52516 8.52513C10.892 7.15829 13.1081 7.15829 14.4749 8.52513" stroke="#323232" stroke-width="1.5" stroke-linecap="round" stroke-linejoin="round"/>
<path fill-rule="evenodd" clip-rule="evenodd" d="M3 5.066V16.935C3 18.075 3.925 19 5.066 19H18.935C20.075 19 21 18.075 21 16.934V5.066C21 3.925 20.075 3 18.934 3H5.066C3.925 3 3 3.925 3 5.066Z" stroke="#323232" stroke-width="1.5" stroke-linecap="round" stroke-linejoin="round"/>
<path d="M11.35 11.7L12.65 10.3" stroke="#323232" stroke-width="1.5" stroke-linecap="round" stroke-linejoin="round"/>
<path d="M5 21V19" stroke="#323232" stroke-width="1.5" stroke-linecap="round" stroke-linejoin="round"/>
<path d="M19 21V19" stroke="#323232" stroke-width="1.5" stroke-linecap="round" stroke-linejoin="round"/>
<path d="M21 6H22" stroke="#323232" stroke-width="1.5" stroke-linecap="round" stroke-linejoin="round"/>
<path d="M21 15H22" stroke="#323232" stroke-width="1.5" stroke-linecap="round" stroke-linejoin="round"/>
</svg>
