<svg width="24" height="24" viewBox="0 0 24 24" fill="none" xmlns="http://www.w3.org/2000/svg">
<rect x="19.0029" y="1.99585" width="3.00125" height="19.0079" rx="1.5" stroke="#323232" stroke-width="1.5" stroke-linecap="round" stroke-linejoin="round"/>
<path d="M6.20758 10.2692H6.19757L6.05751 4.99705C6.04679 4.30367 6.4068 3.65724 7.00193 3.30126C7.59705 2.94528 8.33689 2.93384 8.94274 3.27125C9.54858 3.60865 9.92841 4.24365 9.93913 4.93703V4.99705L9.79907 10.2692H9.78907" stroke="#323232" stroke-width="1.5" stroke-linecap="round" stroke-linejoin="round"/>
<path fill-rule="evenodd" clip-rule="evenodd" d="M7.99832 9.99915V9.99915C4.68323 9.99915 1.99582 12.6866 1.99582 16.0016V20.0033C1.99582 20.5558 2.44372 21.0037 2.99624 21.0037H13.0004C13.5529 21.0037 14.0008 20.5558 14.0008 20.0033V16.0016C14.0008 12.6866 11.3134 9.99915 7.99832 9.99915Z" stroke="#323232" stroke-width="1.5" stroke-linecap="round" stroke-linejoin="round"/>
<path d="M14.0008 18.0025H1.99582" stroke="#323232" stroke-width="1.5" stroke-linecap="round" stroke-linejoin="round"/>
<path d="M19.082 3.01328L16.2418 2.30598C15.9433 2.23219 15.6274 2.29975 15.3853 2.48919C15.1431 2.67863 15.0015 2.96892 15.0013 3.27639V10.7195C15.0015 11.027 15.1431 11.3172 15.3853 11.5067C15.6274 11.6961 15.9433 11.7637 16.2418 11.6899L19.0029 10.9996" stroke="#323232" stroke-width="1.5" stroke-linecap="round" stroke-linejoin="round"/>
</svg>
