<svg width="24" height="24" viewBox="0 0 24 24" fill="none" xmlns="http://www.w3.org/2000/svg">
<path fill-rule="evenodd" clip-rule="evenodd" d="M4.66101 20.1128L5.05562 20.3759C5.66975 20.7853 6.39133 21.0038 7.12942 21.0038H16.8705C17.6086 21.0038 18.3301 20.7853 18.9443 20.3759L19.3389 20.1128C20.379 19.4194 21.0037 18.2521 21.0037 17.0021V17.0021C21.0037 16.4496 20.5558 16.0017 20.0033 16.0017H3.99663C3.44412 16.0017 2.99622 16.4496 2.99622 17.0021V17.0021C2.99622 18.2521 3.62093 19.4194 4.66101 20.1128V20.1128Z" stroke="#323232" stroke-width="1.5" stroke-linecap="round" stroke-linejoin="round"/>
<path d="M19.8076 16.0017C19.9348 15.0352 19.3967 14.1039 18.4959 13.7313L18.4506 13.7126C17.9223 13.4941 17.5026 13.0744 17.2841 12.5461L17.2652 12.5005C16.8927 11.5999 15.9615 11.0619 14.9953 11.189L14.9428 11.1959C14.3753 11.2706 13.8013 11.1167 13.3472 10.7681L13.3112 10.7404C12.5382 10.1469 11.4629 10.1469 10.69 10.7404L10.6492 10.7717C10.1966 11.1192 9.6245 11.2726 9.0588 11.1981L9.00477 11.191C8.03835 11.0638 7.10714 11.6022 6.73516 12.5032L6.71703 12.5471C6.49866 13.0761 6.07851 13.4962 5.54955 13.7146L5.50565 13.7327C4.60466 14.1047 4.06626 15.0359 4.19342 16.0023" stroke="#323232" stroke-width="1.5" stroke-linecap="round" stroke-linejoin="round"/>
<path d="M7.46061 11.5798L3.43893 7.55811C3.05868 7.17953 2.90967 6.62664 3.04817 6.10825C3.18666 5.58985 3.59156 5.18495 4.10996 5.04646C4.62835 4.90796 5.18124 5.05698 5.55982 5.43722L10.792 10.6694" stroke="#323232" stroke-width="1.5" stroke-linecap="round" stroke-linejoin="round"/>
</svg>
