<svg width="24" height="24" viewBox="0 0 24 24" fill="none" xmlns="http://www.w3.org/2000/svg">
<path fill-rule="evenodd" clip-rule="evenodd" d="M15.0756 6.417L17.4649 4.3697C17.9209 3.97897 18.5627 3.88943 19.1082 4.1404C19.6538 4.39137 20.0033 4.93695 20.0033 5.53746V13.0004C20.0033 17.4206 16.4201 21.0038 12 21.0038V21.0038C7.57986 21.0038 3.99664 17.4206 3.99664 13.0004V5.53746C3.99664 4.93695 4.3462 4.39137 4.89174 4.1404C5.43729 3.88943 6.07902 3.97897 6.53503 4.3697L8.92438 6.417C10.9144 5.71342 13.0855 5.71342 15.0756 6.417Z" stroke="#323232" stroke-width="1.5" stroke-linecap="round" stroke-linejoin="round"/>
<path d="M10.2493 10.7498C10.2491 10.8878 10.1371 10.9996 9.99906 10.9996C9.86102 10.9995 9.74913 10.8876 9.74907 10.7496C9.74901 10.6115 9.86081 10.4995 9.99885 10.4994C10.0653 10.4993 10.129 10.5256 10.176 10.5726C10.223 10.6196 10.2494 10.6834 10.2493 10.7498" stroke="#323232" stroke-width="1.5" stroke-linecap="round" stroke-linejoin="round"/>
<path d="M14.2509 10.7498C14.2507 10.8878 14.1388 10.9996 14.0007 10.9996C13.8627 10.9995 13.7508 10.8876 13.7507 10.7496C13.7507 10.6115 13.8625 10.4995 14.0005 10.4994C14.0669 10.4993 14.1307 10.5256 14.1777 10.5726C14.2247 10.6196 14.251 10.6834 14.2509 10.7498" stroke="#323232" stroke-width="1.5" stroke-linecap="round" stroke-linejoin="round"/>
<path fill-rule="evenodd" clip-rule="evenodd" d="M12 14.501V14.501C11.7237 14.501 11.4998 14.277 11.4998 14.0008V14.0008C11.4998 13.9087 11.5744 13.834 11.6665 13.834H12.3335C12.4255 13.834 12.5002 13.9087 12.5002 14.0008V14.0008C12.5002 14.277 12.2762 14.501 12 14.501Z" stroke="#323232" stroke-width="1.5" stroke-linecap="round" stroke-linejoin="round"/>
<path d="M9.81226 17.1269C10.0524 17.3676 10.3785 17.5027 10.7185 17.5022V17.5022C11.4262 17.5022 12 16.9285 12 16.2207C12 16.739 12.3122 17.2063 12.7911 17.4047C13.27 17.603 13.8212 17.4934 14.1877 17.1269" stroke="#323232" stroke-width="1.5" stroke-linecap="round" stroke-linejoin="round"/>
<path d="M12 14.501V16.2207" stroke="#323232" stroke-width="1.5" stroke-linecap="round" stroke-linejoin="round"/>
<path d="M17.0021 12.8069L21.0037 12.14" stroke="#323232" stroke-width="1.5" stroke-linecap="round" stroke-linejoin="round"/>
<path d="M21.0037 16.0017L17.0021 15.3347" stroke="#323232" stroke-width="1.5" stroke-linecap="round" stroke-linejoin="round"/>
<path d="M6.99788 12.8069L2.99622 12.14" stroke="#323232" stroke-width="1.5" stroke-linecap="round" stroke-linejoin="round"/>
<path d="M2.99622 16.0017L6.99788 15.3347" stroke="#323232" stroke-width="1.5" stroke-linecap="round" stroke-linejoin="round"/>
</svg>
