<svg width="24" height="24" viewBox="0 0 24 24" fill="none" xmlns="http://www.w3.org/2000/svg">
<path fill-rule="evenodd" clip-rule="evenodd" d="M4.49685 1.99585H12.6128C12.9344 1.99585 13.2364 2.15043 13.4244 2.41131C13.6124 2.67219 13.6636 3.00755 13.5619 3.31263L13.0795 4.75983C13.0297 4.9092 12.9125 5.0264 12.7631 5.07619L10.6832 5.76948C10.2747 5.90565 9.99914 6.28796 9.99914 6.71858V8.58435C9.99914 8.84968 10.1045 9.10414 10.2922 9.29175L13.8292 12.8288C14.5796 13.5792 15.0012 14.5971 15.0012 15.6584V20.0033C15.0012 21.1084 14.1054 22.0042 13.0004 22.0042H5.99748C4.89245 22.0042 3.99664 21.1084 3.99664 20.0033V12.6058C3.99664 12.2108 4.11357 11.8246 4.33268 11.496L5.66144 9.50283C5.88055 9.17415 5.99748 8.78798 5.99748 8.39296V6.82631C5.99748 6.29565 5.78667 5.78673 5.41144 5.4115L4.14315 4.14319C4.04934 4.04939 3.99664 3.92215 3.99664 3.78949V2.49606C3.99664 2.2198 4.22059 1.99585 4.49685 1.99585Z" stroke="#323232" stroke-width="1.5" stroke-linecap="round" stroke-linejoin="round"/>
<path d="M11.7141 5.42578L13.0004 7.99832" stroke="#323232" stroke-width="1.5" stroke-linecap="round" stroke-linejoin="round"/>
<path d="M17.6023 2.19593L17.0021 2.79618" stroke="#323232" stroke-width="1.5" stroke-linecap="round" stroke-linejoin="round"/>
<path d="M17.0021 5.19715L17.6023 5.7974" stroke="#323232" stroke-width="1.5" stroke-linecap="round" stroke-linejoin="round"/>
<path d="M19.4031 3.99667H20.0033" stroke="#323232" stroke-width="1.5" stroke-linecap="round" stroke-linejoin="round"/>
<path d="M9.99916 8.99874H5.9975" stroke="#323232" stroke-width="1.5" stroke-linecap="round" stroke-linejoin="round"/>
</svg>
