<svg width="24" height="24" viewBox="0 0 24 24" fill="none" xmlns="http://www.w3.org/2000/svg">
<path d="M10.7224 7.36308L11.1556 6.9299C12.3281 5.75742 14.2279 5.75742 15.4004 6.9299L19.9152 11.4448C21.3668 12.8964 21.3668 15.2494 19.9152 16.701L19.6941 16.9221C18.2425 18.3737 15.8896 18.3737 14.438 16.9221L10.9235 13.4076" stroke="#323232" stroke-width="1.5" stroke-linecap="round" stroke-linejoin="round"/>
<path d="M5.49926 14.514C4.02164 13.7757 2.99622 12.264 2.99622 10.4993C2.99622 8.01328 5.01206 5.99744 7.49809 5.99744C9.98413 5.99744 12 8.01328 12 10.4993C12 12.263 10.9755 13.7747 9.49892 14.513V14.511L9.49792 19.0069C9.49692 19.271 9.39188 19.5241 9.2048 19.7101L8.20238 20.7126C7.81222 21.1017 7.18196 21.1007 6.7928 20.7116L5.78938 19.7061C5.6023 19.5191 5.49726 19.265 5.49726 19.0009L5.49926 14.512" stroke="#323232" stroke-width="1.5" stroke-linecap="round" stroke-linejoin="round"/>
<path d="M7.49811 10.2492V5.74736C7.49811 4.22773 8.72962 2.99622 10.2493 2.99622V2.99622C11.7689 2.99622 13.0004 4.22773 13.0004 5.74736V6.06449" stroke="#323232" stroke-width="1.5" stroke-linecap="round" stroke-linejoin="round"/>
<path d="M7.49706 10.2492C7.359 10.2492 7.24696 10.3613 7.24896 10.4994C7.24896 10.6374 7.361 10.7495 7.49906 10.7495C7.63712 10.7495 7.74917 10.6374 7.74917 10.4994C7.74817 10.3613 7.63612 10.2492 7.49706 10.2492" stroke="#323232" stroke-width="1.5" stroke-linecap="round" stroke-linejoin="round"/>
</svg>
