<svg width="24" height="24" viewBox="0 0 24 24" fill="none" xmlns="http://www.w3.org/2000/svg">
<path d="M3 21H17" stroke="#323232" stroke-width="1.5" stroke-linecap="round" stroke-linejoin="round"/>
<path fill-rule="evenodd" clip-rule="evenodd" d="M21 20V11C21 10.4477 20.5523 10 20 10H16C15.4477 10 15 10.4477 15 11V13H12C11.4477 13 11 13.4477 11 14V16H6C5.44772 16 5 16.4477 5 17V20C5 20.5523 5.44772 21 6 21H20C20.5523 21 21 20.5523 21 20Z" stroke="#323232" stroke-width="1.5" stroke-linecap="round" stroke-linejoin="round"/>
<path d="M7.49999 15.9999L7.49989 10.2618" stroke="#323232" stroke-width="1.5" stroke-linecap="round" stroke-linejoin="round"/>
<path d="M18 10V3.08215" stroke="#323232" stroke-width="1.5" stroke-linecap="round" stroke-linejoin="round"/>
<path d="M21 3H18.6248C18.2179 3 17.8208 3.12406 17.4863 3.35562L5 12" stroke="#323232" stroke-width="1.5" stroke-linecap="round" stroke-linejoin="round"/>
</svg>
