<svg width="24" height="24" viewBox="0 0 24 24" fill="none" xmlns="http://www.w3.org/2000/svg">
<path d="M2.99622 21.0037V20.6195C2.99622 19.1887 4.00613 17.9568 5.40922 17.6763L8.25641 17.1071C8.49165 17.06 8.73597 17.1082 8.93569 17.2411V17.2411C10.7911 18.4787 13.2088 18.4787 15.0642 17.2411V17.2411C15.264 17.1082 15.5083 17.06 15.7435 17.1071L18.5907 17.6763C19.9938 17.9568 21.0037 19.1887 21.0037 20.6195V21.0037" stroke="#323232" stroke-width="1.5" stroke-linecap="round" stroke-linejoin="round"/>
<path d="M14.6401 14.0008H17.0021C17.8309 14.0008 18.5027 13.329 18.5027 12.5002V8.49856C18.5027 4.90721 15.5914 1.99585 12 1.99585V1.99585C8.40868 1.99585 5.49731 4.90721 5.49731 8.49856V12.5002C5.49731 13.329 6.16917 14.0008 6.99794 14.0008H9.35992" stroke="#323232" stroke-width="1.5" stroke-linecap="round" stroke-linejoin="round"/>
<path fill-rule="evenodd" clip-rule="evenodd" d="M9.99919 6.6167H14.0009C15.1059 6.6167 16.0017 7.5125 16.0017 8.61753V10.9995C16.0017 13.2096 14.2101 15.0012 12 15.0012V15.0012C9.78996 15.0012 7.99835 13.2096 7.99835 10.9995V8.61753C7.99835 7.5125 8.89416 6.6167 9.99919 6.6167Z" stroke="#323232" stroke-width="1.5" stroke-linecap="round" stroke-linejoin="round"/>
<path d="M6.99792 21.0037H17.0021" stroke="#323232" stroke-width="1.5" stroke-linecap="round" stroke-linejoin="round"/>
<path d="M16.0017 21.0038V17.1582" stroke="#323232" stroke-width="1.5" stroke-linecap="round" stroke-linejoin="round"/>
<path d="M7.99832 21.0038V17.1582" stroke="#323232" stroke-width="1.5" stroke-linecap="round" stroke-linejoin="round"/>
<path d="M14.1019 14.406L14.8452 17.3792" stroke="#323232" stroke-width="1.5" stroke-linecap="round" stroke-linejoin="round"/>
<path d="M9.90012 14.406L9.15681 17.3792" stroke="#323232" stroke-width="1.5" stroke-linecap="round" stroke-linejoin="round"/>
</svg>
