<svg width="24" height="24" viewBox="0 0 24 24" fill="none" xmlns="http://www.w3.org/2000/svg">
<path d="M20 21H4" stroke="#323232" stroke-width="1.5" stroke-linecap="round" stroke-linejoin="round"/>
<path fill-rule="evenodd" clip-rule="evenodd" d="M14.905 3.66597V3.66597C18.786 5.31297 20.833 9.59297 19.679 13.648L19.604 13.913C19.276 15.068 18.01 15.673 16.905 15.204L5.21699 10.242C4.11199 9.77297 3.66799 8.44197 4.27099 7.40297L4.40899 7.16397C6.52499 3.51897 11.025 2.01797 14.905 3.66597Z" stroke="#323232" stroke-width="1.5" stroke-linecap="round" stroke-linejoin="round"/>
<path d="M14.905 3.66602L15.164 4.71302C15.933 7.82802 15.258 11.123 13.325 13.684V13.684" stroke="#323232" stroke-width="1.5" stroke-linecap="round" stroke-linejoin="round"/>
<path d="M14.905 3.66602L13.972 4.20702C11.197 5.81702 9.29602 8.59302 8.79602 11.762V11.762" stroke="#323232" stroke-width="1.5" stroke-linecap="round" stroke-linejoin="round"/>
<path d="M11.06 12.72L7.54999 21" stroke="#323232" stroke-width="1.5" stroke-linecap="round" stroke-linejoin="round"/>
</svg>
