<svg width="24" height="24" viewBox="0 0 24 24" fill="none" xmlns="http://www.w3.org/2000/svg">
<path d="M6.98248 10C6.98248 6.134 8.78113 3 10.9999 3C13.2187 3 15.0173 6.134 15.0173 10" stroke="#323232" stroke-width="1.5" stroke-linecap="round" stroke-linejoin="round"/>
<path fill-rule="evenodd" clip-rule="evenodd" d="M2.99975 10H19.0002C19.3104 9.99728 19.6022 9.85227 19.7917 9.60665C19.9812 9.36103 20.0474 9.04201 19.9713 8.74126C19.1991 5.476 15.4762 3 11 3C6.52378 3 2.80089 5.476 2.02863 8.74125C1.95254 9.042 2.01876 9.36103 2.20826 9.60665C2.39775 9.85227 2.68954 9.99728 2.99975 10V10Z" stroke="#323232" stroke-width="1.5" stroke-linecap="round" stroke-linejoin="round"/>
<path d="M10.9999 15V11" stroke="#323232" stroke-width="1.5" stroke-linecap="round" stroke-linejoin="round"/>
<path d="M21 14L18.6 17.2C18.2223 17.7036 17.6295 18 17 18H5.44152C4.58066 18 3.81638 18.5509 3.54415 19.3675L3 21" stroke="#323232" stroke-width="1.5" stroke-linecap="round" stroke-linejoin="round"/>
<path d="M19 21L18 18" stroke="#323232" stroke-width="1.5" stroke-linecap="round" stroke-linejoin="round"/>
</svg>
