<svg width="19" height="19" viewBox="0 0 19 19" fill="none" xmlns="http://www.w3.org/2000/svg">
<path d="M7.337 11.1401C4.6715 11.4911 2.75 12.4699 2.75 13.6249C2.75 15.0746 5.77175 16.2499 9.5 16.2499C13.2283 16.2499 16.25 15.0746 16.25 13.6249C16.25 12.4699 14.3285 11.4911 11.663 11.1401" stroke="#202020" stroke-linecap="round" stroke-linejoin="round"/>
<path fill-rule="evenodd" clip-rule="evenodd" d="M14 6.37475C14 3.959 11.9855 2 9.5 2C7.0145 2 5 3.959 5 6.37475C5 9.656 9.5 13.25 9.5 13.25C9.5 13.25 14 9.656 14 6.37475Z" stroke="#202020" stroke-linecap="round" stroke-linejoin="round"/>
<path d="M10.5607 5.43934C11.1464 6.02513 11.1464 6.97488 10.5607 7.56066C9.97488 8.14645 9.02513 8.14645 8.43934 7.56066C7.85355 6.97488 7.85355 6.02513 8.43934 5.43934C9.02513 4.85355 9.97487 4.85355 10.5607 5.43934" stroke="#202020" stroke-linecap="round" stroke-linejoin="round"/>
</svg>
