<svg width="19" height="18" viewBox="0 0 19 18" fill="none" xmlns="http://www.w3.org/2000/svg">
<path d="M7.25 12.75H11.75" stroke="#202020" stroke-linecap="round" stroke-linejoin="round"/>
<path d="M10.5607 7.93934C11.1464 8.52513 11.1464 9.47488 10.5607 10.0607C9.97488 10.6464 9.02513 10.6464 8.43934 10.0607C7.85355 9.47488 7.85355 8.52513 8.43934 7.93934C9.02513 7.35355 9.97487 7.35355 10.5607 7.93934" stroke="#202020" stroke-linecap="round" stroke-linejoin="round"/>
<path d="M4.25 4.51626H13.25C14.0788 4.51626 14.75 5.18751 14.75 6.01626V14.9998C14.75 15.8248 14.075 16.4998 13.25 16.4998H5.75C4.92125 16.4998 4.25 15.8285 4.25 14.9998V4.51626C4.25 4.20426 4.4435 3.92451 4.73525 3.81426L10.7353 1.54851C11.2258 1.36326 11.75 1.72626 11.75 2.25051V4.51626" stroke="#202020" stroke-linecap="round" stroke-linejoin="round"/>
</svg>
