<svg width="18" height="19" viewBox="0 0 18 19" fill="none" xmlns="http://www.w3.org/2000/svg">
<path d="M11.2502 2.74707H7.36962C6.97195 2.74707 6.59004 2.90539 6.30868 3.18675L5.99805 3.49738" stroke="#202020" stroke-linecap="round" stroke-linejoin="round"/>
<path fill-rule="evenodd" clip-rule="evenodd" d="M10.8766 7.24898H7.125V5.74836C7.125 5.33419 7.46114 4.99805 7.87531 4.99805H10.1262C10.5404 4.99805 10.8766 5.33419 10.8766 5.74836V7.24898Z" stroke="#202020" stroke-linecap="round" stroke-linejoin="round"/>
<path fill-rule="evenodd" clip-rule="evenodd" d="M10.7151 7.24902H7.28471C5.74582 7.24902 4.49805 8.49679 4.49805 10.0357V15.5025C4.49805 16.3316 5.16958 17.0031 5.99867 17.0031H12.0012C12.8303 17.0031 13.5018 16.3316 13.5018 15.5025V10.0357C13.5018 8.49679 12.254 7.24902 10.7151 7.24902Z" stroke="#202020" stroke-linecap="round" stroke-linejoin="round"/>
<path d="M9.00016 2.74707V4.99801" stroke="#202020" stroke-linecap="round" stroke-linejoin="round"/>
</svg>
