<svg width="19" height="19" viewBox="0 0 19 19" fill="none" xmlns="http://www.w3.org/2000/svg">
<path d="M13.25 16.25V3.5C13.25 3.086 12.914 2.75 12.5 2.75H6.5C6.086 2.75 5.75 3.086 5.75 3.5V16.25" stroke="#202020" stroke-linecap="round" stroke-linejoin="round"/>
<path d="M5.75 7.25H2.75C2.336 7.25 2 7.586 2 8V16.25" stroke="#202020" stroke-linecap="round" stroke-linejoin="round"/>
<path d="M17 16.25V8C17 7.586 16.664 7.25 16.25 7.25H13.25" stroke="#202020" stroke-linecap="round" stroke-linejoin="round"/>
<path d="M7.625 13.25H11.375" stroke="#202020" stroke-linecap="round" stroke-linejoin="round"/>
<path d="M10.625 13.25V16.25" stroke="#202020" stroke-linecap="round" stroke-linejoin="round"/>
<path d="M8.375 16.25V13.25" stroke="#202020" stroke-linecap="round" stroke-linejoin="round"/>
<path d="M8 8.375H11" stroke="#202020" stroke-linecap="round" stroke-linejoin="round"/>
<path d="M8 10.625H11" stroke="#202020" stroke-linecap="round" stroke-linejoin="round"/>
<path d="M8 6.125H11" stroke="#202020" stroke-linecap="round" stroke-linejoin="round"/>
<path d="M4.25 10.625H5.75" stroke="#202020" stroke-linecap="round" stroke-linejoin="round"/>
<path d="M4.25 13.25H5.75" stroke="#202020" stroke-linecap="round" stroke-linejoin="round"/>
<path d="M13.25 10.625H14.75" stroke="#202020" stroke-linecap="round" stroke-linejoin="round"/>
<path d="M13.25 13.25H14.75" stroke="#202020" stroke-linecap="round" stroke-linejoin="round"/>
<path d="M17.75 16.25H1.25" stroke="#202020" stroke-linecap="round" stroke-linejoin="round"/>
</svg>
