<svg width="72" height="72" viewBox="0 0 72 72" fill="none" xmlns="http://www.w3.org/2000/svg">
<g filter="url(#filter0_dd_559_34414)">
<rect x="8" y="8" width="56" height="56" rx="28" fill="white"/>
<path d="M21 41H28.3033C28.9349 41 29.5122 41.357 29.7944 41.922L30.5382 43.4114C30.8204 43.9763 31.3977 44.3333 32.0292 44.3333H39.9691C40.6004 44.3333 41.1775 43.9767 41.4598 43.412L42.2052 41.9213C42.4875 41.3567 43.0646 41 43.6959 41H51" stroke="url(#paint0_linear_559_34414)" stroke-width="1.5" stroke-linecap="round" stroke-linejoin="round"/>
<path fill-rule="evenodd" clip-rule="evenodd" d="M46 21C48.7614 21 51 23.2386 51 26V46C51 48.7614 48.7614 51 46 51H26C23.2386 51 21 48.7614 21 46V26C21 23.2386 23.2386 21 26 21H46Z" stroke="url(#paint1_linear_559_34414)" stroke-width="1.5" stroke-linecap="round" stroke-linejoin="round"/>
<path d="M35.9993 36.7409V28.4075" stroke="url(#paint2_linear_559_34414)" stroke-width="1.5" stroke-linecap="round" stroke-linejoin="round"/>
<path d="M32.666 33.4083L35.9993 36.7417L39.3327 33.4083" stroke="url(#paint3_linear_559_34414)" stroke-width="1.5" stroke-linecap="round" stroke-linejoin="round"/>
</g>
<defs>
<filter id="filter0_dd_559_34414" x="-9.53674e-07" y="-9.53674e-07" width="72" height="72" filterUnits="userSpaceOnUse" color-interpolation-filters="sRGB">
<feFlood flood-opacity="0" result="BackgroundImageFix"/>
<feColorMatrix in="SourceAlpha" type="matrix" values="0 0 0 0 0 0 0 0 0 0 0 0 0 0 0 0 0 0 127 0" result="hardAlpha"/>
<feOffset dx="-2" dy="-2"/>
<feGaussianBlur stdDeviation="3"/>
<feColorMatrix type="matrix" values="0 0 0 0 0.992157 0 0 0 0 1 0 0 0 0 1 0 0 0 0.8 0"/>
<feBlend mode="normal" in2="BackgroundImageFix" result="effect1_dropShadow_559_34414"/>
<feColorMatrix in="SourceAlpha" type="matrix" values="0 0 0 0 0 0 0 0 0 0 0 0 0 0 0 0 0 0 127 0" result="hardAlpha"/>
<feOffset dx="2" dy="2"/>
<feGaussianBlur stdDeviation="3"/>
<feColorMatrix type="matrix" values="0 0 0 0 0.733333 0 0 0 0 0.764706 0 0 0 0 0.807843 0 0 0 0.6 0"/>
<feBlend mode="normal" in2="effect1_dropShadow_559_34414" result="effect2_dropShadow_559_34414"/>
<feBlend mode="normal" in="SourceGraphic" in2="effect2_dropShadow_559_34414" result="shape"/>
</filter>
<linearGradient id="paint0_linear_559_34414" x1="36" y1="41" x2="36" y2="44.3333" gradientUnits="userSpaceOnUse">
<stop stop-color="#6B349A"/>
<stop offset="1" stop-color="#4C37C3"/>
</linearGradient>
<linearGradient id="paint1_linear_559_34414" x1="36" y1="21" x2="36" y2="51" gradientUnits="userSpaceOnUse">
<stop stop-color="#6B349A"/>
<stop offset="1" stop-color="#4C37C3"/>
</linearGradient>
<linearGradient id="paint2_linear_559_34414" x1="35.9993" y1="28.4075" x2="35.9993" y2="36.7409" gradientUnits="userSpaceOnUse">
<stop stop-color="#6B349A"/>
<stop offset="1" stop-color="#4C37C3"/>
</linearGradient>
<linearGradient id="paint3_linear_559_34414" x1="35.9993" y1="33.4083" x2="35.9993" y2="36.7417" gradientUnits="userSpaceOnUse">
<stop stop-color="#6B349A"/>
<stop offset="1" stop-color="#4C37C3"/>
</linearGradient>
</defs>
</svg>
