<svg width="19" height="18" viewBox="0 0 19 18" fill="none" xmlns="http://www.w3.org/2000/svg">
<path fill-rule="evenodd" clip-rule="evenodd" d="M9.083 16.5H4.33325C3.45875 16.5 2.75 15.7913 2.75 14.9168V6.99975C2.75 6.12525 3.45875 5.4165 4.33325 5.4165H9.083C9.9575 5.4165 10.6663 6.12525 10.6663 6.99975V14.9168C10.667 15.7913 9.9575 16.5 9.083 16.5Z" stroke="#202020" stroke-linecap="round" stroke-linejoin="round"/>
<path d="M7.81445 5.41639L8.5487 2.67364C8.7752 1.82914 9.6437 1.32739 10.4882 1.55389L15.076 2.78314C15.9205 3.00964 16.4222 3.87739 16.1957 4.72264L14.1467 12.3696C13.9202 13.2141 13.0525 13.7159 12.208 13.4894L10.6667 13.0769" stroke="#202020" stroke-linecap="round" stroke-linejoin="round"/>
</svg>
