<svg width="19" height="19" viewBox="0 0 19 19" fill="none" xmlns="http://www.w3.org/2000/svg">
<path d="M7.25 6.5V6.5C7.25 4.42925 8.92925 2.75 11 2.75V2.75C13.0707 2.75 14.75 4.42925 14.75 6.5V16.25" stroke="#202020" stroke-linecap="round" stroke-linejoin="round"/>
<path fill-rule="evenodd" clip-rule="evenodd" d="M9.06364 10.061H5.43964C4.62964 10.061 4.05739 9.2675 4.31389 8.49875V8.49875C4.71139 7.30475 5.82814 6.5 7.08664 6.5H7.41664C8.67439 6.5 9.79189 7.30475 10.1894 8.49875V8.49875C10.4459 9.2675 9.87364 10.061 9.06364 10.061V10.061Z" stroke="#202020" stroke-linecap="round" stroke-linejoin="round"/>
<path d="M7.25 15.5V16.25" stroke="#202020" stroke-linecap="round" stroke-linejoin="round"/>
<path d="M7.25 13.25V12.5" stroke="#202020" stroke-linecap="round" stroke-linejoin="round"/>
<path d="M11.7512 15.2375L11.3387 14.615" stroke="#202020" stroke-linecap="round" stroke-linejoin="round"/>
<path d="M9.68047 12.1248L10.093 12.7473" stroke="#202020" stroke-linecap="round" stroke-linejoin="round"/>
<path d="M4.82148 12.1248L4.40898 12.7473" stroke="#202020" stroke-linecap="round" stroke-linejoin="round"/>
<path d="M3.16328 14.615L2.75078 15.2375" stroke="#202020" stroke-linecap="round" stroke-linejoin="round"/>
</svg>
