<svg width="40" height="40" viewBox="0 0 40 40" fill="none" xmlns="http://www.w3.org/2000/svg">
<rect x="35" y="35" width="30" height="30" rx="5.83333" transform="rotate(-180 35 35)" stroke="#202020" stroke-width="1.5" stroke-linecap="round" stroke-linejoin="round"/>
<path d="M5.60156 29.779L12.7377 22.6428C13.3628 22.0177 14.2107 21.6665 15.0947 21.6665C15.9788 21.6665 16.8266 22.0177 17.4517 22.6428L29.3631 34.5542" stroke="#202020" stroke-width="1.5" stroke-linecap="round" stroke-linejoin="round"/>
<path d="M35.0005 24.5094L29.8009 19.3098C29.1758 18.6847 28.3279 18.3335 27.4439 18.3335C26.5598 18.3335 25.712 18.6847 25.0869 19.3098L19.6055 24.7911" stroke="#202020" stroke-width="1.5" stroke-linecap="round" stroke-linejoin="round"/>
<path d="M14.853 14.02L14.8533 14.0196C14.9346 13.9423 15.0632 13.9454 15.1406 14.0266C15.218 14.1078 15.215 14.2364 15.1338 14.3138C15.0527 14.3913 14.9241 14.3884 14.8466 14.3072C14.769 14.2261 14.7719 14.0976 14.853 14.02" stroke="#202020" stroke-width="1.5" stroke-linecap="round" stroke-linejoin="round"/>
</svg>
