<svg width="48" height="49" viewBox="0 0 48 49" fill="none" xmlns="http://www.w3.org/2000/svg">
<g filter="url(#filter0_dd_187_9604)">
<rect x="8" y="8.5" width="32" height="32" rx="16" fill="#CFD8DC"/>
<rect x="8" y="8.5" width="32" height="32" rx="16" fill="white"/>
<mask id="mask0_187_9604" style="mask-type:alpha" maskUnits="userSpaceOnUse" x="14" y="14" width="20" height="21">
<rect x="14" y="14.5" width="20" height="20" fill="#D9D9D9"/>
</mask>
<g mask="url(#mask0_187_9604)">
<path d="M18.166 30.3337H17.3327L16.791 28.667H15.666V24.4795C15.666 24.0212 15.8292 23.6323 16.1556 23.3128C16.482 22.9934 16.8743 22.8337 17.3327 22.8337V20.3337C17.3327 19.8753 17.4959 19.483 17.8223 19.1566C18.1487 18.8302 18.541 18.667 18.9993 18.667H28.9993C29.4577 18.667 29.85 18.8302 30.1764 19.1566C30.5028 19.483 30.666 19.8753 30.666 20.3337V22.8337C31.1243 22.8337 31.5167 22.9969 31.8431 23.3232C32.1695 23.6496 32.3327 24.042 32.3327 24.5003V28.667H31.2077L30.666 30.3337H29.8327L29.291 28.667H18.7077L18.166 30.3337ZM24.8327 22.8337H28.9993V20.3337H24.8327V22.8337ZM18.9993 22.8337H23.166V20.3337H18.9993V22.8337Z" fill="#666666"/>
</g>
</g>
<defs>
<filter id="filter0_dd_187_9604" x="-9.53674e-07" y="0.499999" width="48" height="48" filterUnits="userSpaceOnUse" color-interpolation-filters="sRGB">
<feFlood flood-opacity="0" result="BackgroundImageFix"/>
<feColorMatrix in="SourceAlpha" type="matrix" values="0 0 0 0 0 0 0 0 0 0 0 0 0 0 0 0 0 0 127 0" result="hardAlpha"/>
<feOffset dx="2" dy="2"/>
<feGaussianBlur stdDeviation="3"/>
<feColorMatrix type="matrix" values="0 0 0 0 0.733333 0 0 0 0 0.764706 0 0 0 0 0.807843 0 0 0 0.6 0"/>
<feBlend mode="normal" in2="BackgroundImageFix" result="effect1_dropShadow_187_9604"/>
<feColorMatrix in="SourceAlpha" type="matrix" values="0 0 0 0 0 0 0 0 0 0 0 0 0 0 0 0 0 0 127 0" result="hardAlpha"/>
<feOffset dx="-2" dy="-2"/>
<feGaussianBlur stdDeviation="3"/>
<feColorMatrix type="matrix" values="0 0 0 0 0.992157 0 0 0 0 1 0 0 0 0 1 0 0 0 0.8 0"/>
<feBlend mode="normal" in2="effect1_dropShadow_187_9604" result="effect2_dropShadow_187_9604"/>
<feBlend mode="normal" in="SourceGraphic" in2="effect2_dropShadow_187_9604" result="shape"/>
</filter>
</defs>
</svg>
