<svg width="48" height="49" viewBox="0 0 48 49" fill="none" xmlns="http://www.w3.org/2000/svg">
<g filter="url(#filter0_dd_187_9622)">
<rect x="8" y="8.5" width="32" height="32" rx="16" fill="#CFD8DC"/>
<rect x="8" y="8.5" width="32" height="32" rx="16" fill="white"/>
<mask id="mask0_187_9622" style="mask-type:alpha" maskUnits="userSpaceOnUse" x="14" y="14" width="20" height="21">
<rect x="14" y="14.5" width="20" height="20" fill="#D9D9D9"/>
</mask>
<g mask="url(#mask0_187_9622)">
<path d="M14.834 28.6663V20.333H16.5007V26.9997H23.1673V20.333H29.834C30.7507 20.333 31.5354 20.6594 32.1882 21.3122C32.8409 21.965 33.1673 22.7497 33.1673 23.6663V28.6663H14.834ZM19.834 26.1663C20.5284 26.1663 21.1187 25.9233 21.6048 25.4372C22.0909 24.9511 22.334 24.3608 22.334 23.6663C22.334 22.9719 22.0909 22.3816 21.6048 21.8955C21.1187 21.4094 20.5284 21.1663 19.834 21.1663C19.1395 21.1663 18.5493 21.4094 18.0632 21.8955C17.577 22.3816 17.334 22.9719 17.334 23.6663C17.334 24.3608 17.577 24.9511 18.0632 25.4372C18.5493 25.9233 19.1395 26.1663 19.834 26.1663Z" fill="#666666"/>
</g>
</g>
<defs>
<filter id="filter0_dd_187_9622" x="-9.53674e-07" y="0.499999" width="48" height="48" filterUnits="userSpaceOnUse" color-interpolation-filters="sRGB">
<feFlood flood-opacity="0" result="BackgroundImageFix"/>
<feColorMatrix in="SourceAlpha" type="matrix" values="0 0 0 0 0 0 0 0 0 0 0 0 0 0 0 0 0 0 127 0" result="hardAlpha"/>
<feOffset dx="2" dy="2"/>
<feGaussianBlur stdDeviation="3"/>
<feColorMatrix type="matrix" values="0 0 0 0 0.733333 0 0 0 0 0.764706 0 0 0 0 0.807843 0 0 0 0.6 0"/>
<feBlend mode="normal" in2="BackgroundImageFix" result="effect1_dropShadow_187_9622"/>
<feColorMatrix in="SourceAlpha" type="matrix" values="0 0 0 0 0 0 0 0 0 0 0 0 0 0 0 0 0 0 127 0" result="hardAlpha"/>
<feOffset dx="-2" dy="-2"/>
<feGaussianBlur stdDeviation="3"/>
<feColorMatrix type="matrix" values="0 0 0 0 0.992157 0 0 0 0 1 0 0 0 0 1 0 0 0 0.8 0"/>
<feBlend mode="normal" in2="effect1_dropShadow_187_9622" result="effect2_dropShadow_187_9622"/>
<feBlend mode="normal" in="SourceGraphic" in2="effect2_dropShadow_187_9622" result="shape"/>
</filter>
</defs>
</svg>
