<svg width="25" height="24" viewBox="0 0 25 24" fill="none" xmlns="http://www.w3.org/2000/svg">
<rect x="0.5" width="24" height="24" rx="12" fill="#E3E3E3"/>
<path d="M17.0872 10.8197C16.9105 10.635 16.7277 10.4447 16.6588 10.2773C16.595 10.1241 16.5912 9.87 16.5875 9.62391C16.5805 9.16641 16.573 8.64797 16.2125 8.2875C15.852 7.92703 15.3336 7.91953 14.8761 7.9125C14.63 7.90875 14.3759 7.905 14.2227 7.84125C14.0558 7.77234 13.865 7.58953 13.6803 7.41281C13.3569 7.10203 12.9894 6.75 12.5 6.75C12.0106 6.75 11.6436 7.10203 11.3197 7.41281C11.135 7.58953 10.9447 7.77234 10.7773 7.84125C10.625 7.905 10.37 7.90875 10.1239 7.9125C9.66641 7.91953 9.14797 7.92703 8.7875 8.2875C8.42703 8.64797 8.42188 9.16641 8.4125 9.62391C8.40875 9.87 8.405 10.1241 8.34125 10.2773C8.27234 10.4442 8.08953 10.635 7.91281 10.8197C7.60203 11.1431 7.25 11.5106 7.25 12C7.25 12.4894 7.60203 12.8564 7.91281 13.1803C8.08953 13.365 8.27234 13.5553 8.34125 13.7227C8.405 13.8759 8.40875 14.13 8.4125 14.3761C8.41953 14.8336 8.42703 15.352 8.7875 15.7125C9.14797 16.073 9.66641 16.0805 10.1239 16.0875C10.37 16.0912 10.6241 16.095 10.7773 16.1588C10.9442 16.2277 11.135 16.4105 11.3197 16.5872C11.6431 16.898 12.0106 17.25 12.5 17.25C12.9894 17.25 13.3564 16.898 13.6803 16.5872C13.865 16.4105 14.0553 16.2277 14.2227 16.1588C14.3759 16.095 14.63 16.0912 14.8761 16.0875C15.3336 16.0805 15.852 16.073 16.2125 15.7125C16.573 15.352 16.5805 14.8336 16.5875 14.3761C16.5912 14.13 16.595 13.8759 16.6588 13.7227C16.7277 13.5558 16.9105 13.365 17.0872 13.1803C17.398 12.8569 17.75 12.4894 17.75 12C17.75 11.5106 17.398 11.1436 17.0872 10.8197ZM14.6403 11.1403L12.0153 13.7653C11.9805 13.8002 11.9391 13.8278 11.8936 13.8467C11.8481 13.8656 11.7993 13.8753 11.75 13.8753C11.7007 13.8753 11.6519 13.8656 11.6064 13.8467C11.5609 13.8278 11.5195 13.8002 11.4847 13.7653L10.3597 12.6403C10.2893 12.5699 10.2498 12.4745 10.2498 12.375C10.2498 12.2755 10.2893 12.1801 10.3597 12.1097C10.4301 12.0393 10.5255 11.9998 10.625 11.9998C10.7245 11.9998 10.8199 12.0393 10.8903 12.1097L11.75 12.9698L14.1097 10.6097C14.1445 10.5748 14.1859 10.5472 14.2314 10.5284C14.2769 10.5095 14.3257 10.4998 14.375 10.4998C14.4243 10.4998 14.4731 10.5095 14.5186 10.5284C14.5641 10.5472 14.6055 10.5748 14.6403 10.6097C14.6752 10.6445 14.7028 10.6859 14.7216 10.7314C14.7405 10.7769 14.7502 10.8257 14.7502 10.875C14.7502 10.9243 14.7405 10.9731 14.7216 11.0186C14.7028 11.0641 14.6752 11.1055 14.6403 11.1403Z" fill="#B6B6B6"/>
</svg>
