<svg width="24" height="24" viewBox="0 0 24 24" fill="none" xmlns="http://www.w3.org/2000/svg">
<g id="Group">
<g id="Group_2">
<path id="Path" fill-rule="evenodd" clip-rule="evenodd" d="M14.5268 9.12012H11.4738C10.7908 9.12012 10.3088 8.45112 10.5248 7.80412V7.80412C10.8598 6.79812 11.8008 6.12012 12.8608 6.12012H13.1388C14.1988 6.12012 15.1398 6.79812 15.4748 7.80412V7.80412C15.6908 8.45112 15.2088 9.12012 14.5268 9.12012V9.12012Z" stroke="#202020" stroke-width="1.5" stroke-linecap="round" stroke-linejoin="round"/>
<path id="Path_2" d="M6.99326 13.2629H4.00026C3.38626 13.2629 2.91726 13.8109 3.01226 14.4169L3.35626 16.6169C3.66026 18.5649 5.33726 19.9999 7.30826 19.9999H16.6923C18.6633 19.9999 20.3403 18.5649 20.6443 16.6179L20.9883 14.4179C21.0833 13.8119 20.6143 13.2639 20.0003 13.2639H12.2633" stroke="#202020" stroke-width="1.5" stroke-linecap="round" stroke-linejoin="round"/>
<path id="Path_3" d="M13 6.12V6C13 4.343 14.343 3 16 3V3C17.657 3 19 4.343 19 6V13.263" stroke="#202020" stroke-width="1.5" stroke-linecap="round" stroke-linejoin="round"/>
<path id="Path_4" fill-rule="evenodd" clip-rule="evenodd" d="M10.158 17.263H9.105C7.943 17.263 7 16.321 7 15.158V13.153C7 12.516 7.516 12 8.153 12H11.11C11.747 12 12.263 12.516 12.263 13.153V15.158C12.263 16.321 11.321 17.263 10.158 17.263Z" stroke="#202020" stroke-width="1.5" stroke-linecap="round" stroke-linejoin="round"/>
<path id="Path_5" d="M6.04 19.8L5 21" stroke="#202020" stroke-width="1.5" stroke-linecap="round" stroke-linejoin="round"/>
<path id="Path_6" d="M19 21L17.96 19.8" stroke="#202020" stroke-width="1.5" stroke-linecap="round" stroke-linejoin="round"/>
</g>
</g>
</svg>
