<svg width="17" height="16" viewBox="0 0 17 16" fill="none" xmlns="http://www.w3.org/2000/svg">
<path d="M2 8.66668H15.3333" stroke="#323232" stroke-linecap="round" stroke-linejoin="round"/>
<path d="M14.667 8.66667L14.304 10.9902C14.0932 12.339 12.9315 13.3333 11.5663 13.3333H5.76771C4.40251 13.3333 3.24074 12.339 3.03001 10.9902L2.66699 8.66667" stroke="#323232" stroke-linecap="round" stroke-linejoin="round"/>
<path d="M4.75415 13.1382L4 14" stroke="#323232" stroke-linecap="round" stroke-linejoin="round"/>
<path d="M12.5801 13.1382L13.3342 14" stroke="#323232" stroke-linecap="round" stroke-linejoin="round"/>
<path fill-rule="evenodd" clip-rule="evenodd" d="M7.92561 4H8.07469C8.7813 4 9.40864 4.45216 9.63209 5.12251V5.12251C9.69986 5.32581 9.66577 5.5493 9.54047 5.72314C9.41516 5.89699 9.21393 6 8.99963 6H7.00066C6.78636 6 6.58513 5.89699 6.45983 5.72314C6.33453 5.5493 6.30043 5.32581 6.3682 5.12251V5.12251C6.59165 4.45216 7.21899 4 7.92561 4V4Z" stroke="#323232" stroke-linecap="round" stroke-linejoin="round"/>
<path d="M8 4V4C8 2.89543 7.10457 2 6 2V2C4.89543 2 4 2.89543 4 4V8.66667" stroke="#323232" stroke-linecap="round" stroke-linejoin="round"/>
</svg>
