<svg width="12" height="12" viewBox="0 0 12 12" fill="none" xmlns="http://www.w3.org/2000/svg">
<path d="M2.40039 11.02H6.81739C7.36939 11.02 7.81739 10.572 7.81739 10.02L7.81739 4.72998C7.81739 4.17798 7.36939 3.72998 6.81739 3.72998L2.40039 3.72998C1.84839 3.72998 1.40039 4.17798 1.40039 4.72998L1.40039 10.021C1.40039 10.573 1.84739 11.02 2.40039 11.02Z" stroke="#B6B6B6" stroke-width="1.5" stroke-linecap="round" stroke-linejoin="round"/>
<path d="M4.15039 3.72998V1.97998C4.15039 1.42798 4.59839 0.97998 5.15039 0.97998L9.60039 0.97998C10.1524 0.97998 10.6004 1.42798 10.6004 1.97998V7.27098C10.6004 7.82298 10.1524 8.27098 9.60039 8.27098H7.81639" stroke="#B6B6B6" stroke-width="1.5" stroke-linecap="round" stroke-linejoin="round"/>
</svg>
