<svg width="24" height="25" viewBox="0 0 24 25" fill="none" xmlns="http://www.w3.org/2000/svg">
<g clip-path="url(#clip0_2962_96912)">
<path d="M12 0.5C18.628 0.5 24 5.87305 24 12.5C24 19.128 18.628 24.5 12 24.5C5.37305 24.5 0 19.1275 0 12.5C0 5.87305 5.37305 0.5 12 0.5Z" fill="#2775CA"/>
<path d="M15.2426 13.9162C15.2426 12.5 14.3699 12.0144 12.6247 11.8122C11.378 11.6503 11.1287 11.3266 11.1287 10.7601C11.1287 10.1935 11.5443 9.82947 12.3753 9.82947C13.1233 9.82947 13.5389 10.0722 13.7466 10.6792C13.7882 10.8006 13.9129 10.8815 14.0375 10.8815H14.7023C14.8686 10.8815 14.9932 10.7601 14.9932 10.5983V10.5578C14.827 9.66758 14.079 8.97975 13.1233 8.89886V7.92776C13.1233 7.76587 12.9986 7.64449 12.7909 7.60399H12.1676C12.0014 7.60399 11.8767 7.72538 11.8351 7.92776V8.85836C10.5885 9.02025 9.79903 9.82947 9.79903 10.8411C9.79903 12.1763 10.6301 12.7023 12.3753 12.9047C13.5389 13.1069 13.9129 13.3497 13.9129 13.9972C13.9129 14.6446 13.331 15.0896 12.5416 15.0896C11.4611 15.0896 11.0871 14.6445 10.9625 14.0375C10.921 13.8758 10.7963 13.7948 10.6717 13.7948H9.96518C9.79903 13.7948 9.67436 13.9162 9.67436 14.078V14.1185C9.84051 15.13 10.5054 15.8584 11.8767 16.0607V17.0318C11.8767 17.1936 12.0014 17.315 12.2091 17.3555H12.8324C12.9986 17.3555 13.1233 17.2341 13.1649 17.0318V16.0607C14.4115 15.8584 15.2426 15.0086 15.2426 13.9162Z" fill="white"/>
<path d="M10.3807 18.1647C7.13954 17.0318 5.47735 13.5116 6.68248 10.3959C7.30579 8.69648 8.67707 7.40171 10.3807 6.79477C10.547 6.71388 10.6301 6.59249 10.6301 6.39011V5.82367C10.6301 5.66179 10.547 5.5404 10.3807 5.5C10.3392 5.5 10.2561 5.5 10.2145 5.5404C6.26691 6.75428 4.10607 10.8411 5.35269 14.685C6.10066 16.9509 7.88751 18.6908 10.2145 19.4191C10.3807 19.5 10.547 19.4191 10.5885 19.2572C10.6301 19.2168 10.6301 19.1763 10.6301 19.0954V18.5289C10.6301 18.4075 10.5054 18.2457 10.3807 18.1647ZM14.7855 5.5404C14.6193 5.4595 14.453 5.5404 14.4115 5.70228C14.3699 5.74278 14.3699 5.78317 14.3699 5.86416V6.43061C14.3699 6.59249 14.4946 6.75428 14.6193 6.83527C17.8605 7.96816 19.5226 11.4884 18.3175 14.6041C17.6942 16.3035 16.3229 17.5983 14.6193 18.2052C14.453 18.2861 14.3699 18.4075 14.3699 18.6099V19.1763C14.3699 19.3382 14.453 19.4596 14.6193 19.5C14.6608 19.5 14.7439 19.5 14.7855 19.4596C18.7331 18.2457 20.8939 14.1589 19.6473 10.315C18.8993 8.00865 17.0709 6.26872 14.7855 5.5404Z" fill="white"/>
</g>
<defs>
<clipPath id="clip0_2962_96912">
<rect width="24" height="24" fill="white" transform="translate(0 0.5)"/>
</clipPath>
</defs>
</svg>
