<svg width="24" height="24" viewBox="0 0 24 24" fill="none" xmlns="http://www.w3.org/2000/svg">
<g id="Group">
<path id="Path" d="M20 10.0002V5.00024C20 3.89567 19.1046 3.00024 18 3.00024H5C3.89543 3.00024 3 3.89567 3 5.00024V19.0002C3 20.1048 3.89543 21.0002 5 21.0002H10" stroke="#323232" stroke-width="1.8" stroke-linecap="round" stroke-linejoin="round"/>
<path id="Path_2" d="M7 7.00024H16" stroke="#323232" stroke-width="1.5" stroke-linecap="round" stroke-linejoin="round"/>
<path id="Path_3" d="M7 11.0002H13" stroke="#323232" stroke-width="1.5" stroke-linecap="round" stroke-linejoin="round"/>
<path id="Path_4" d="M7 15.0002H9" stroke="#323232" stroke-width="1.5" stroke-linecap="round" stroke-linejoin="round"/>
<path id="Path_5" d="M14.04 15.6191V20.0001C14.0417 20.5518 14.4884 20.9985 15.04 21.0001H20.04C20.5923 21.0001 21.04 20.5524 21.04 20.0001V15.6877" stroke="#323232" stroke-width="1.5" stroke-linecap="round" stroke-linejoin="round"/>
<path id="Path_6" d="M22 16.5002L18.1462 13.2371C17.7733 12.9213 17.2267 12.9213 16.8538 13.2371L13 16.5002" stroke="#323232" stroke-width="1.5" stroke-linecap="round" stroke-linejoin="round"/>
</g>
</svg>
