<svg width="16" height="16" viewBox="0 0 16 16" fill="none" xmlns="http://www.w3.org/2000/svg">
<path d="M1.33301 12.6667C1.33301 11.2 2.53301 10 3.99967 10H6.66634C8.13301 10 9.33301 11.2 9.33301 12.6667" stroke="#323232" stroke-width="1.2" stroke-linecap="round" stroke-linejoin="round"/>
<path d="M6.99979 4C7.93312 4.93333 7.93312 6.4 6.99979 7.26667C6.06646 8.13333 4.59979 8.2 3.73312 7.26667C2.86646 6.33333 2.79979 4.93333 3.66646 4C4.53312 3.06667 6.06646 3.13333 6.99979 4" stroke="#323232" stroke-width="1.2" stroke-linecap="round" stroke-linejoin="round"/>
<path d="M10.666 9.33333H12.666C13.7993 9.33333 14.666 10.2 14.666 11.3333" stroke="#323232" stroke-width="1.2" stroke-linecap="round" stroke-linejoin="round"/>
<path d="M12.8663 4.46666C13.5329 5.13333 13.5329 6.2 12.8663 6.8C12.1996 7.4 11.1329 7.46666 10.5329 6.8C9.93295 6.13333 9.86628 5.06666 10.5329 4.46666C11.1329 3.86666 12.1996 3.86666 12.8663 4.46666" stroke="#323232" stroke-width="1.2" stroke-linecap="round" stroke-linejoin="round"/>
</svg>
