<svg width="16" height="16" viewBox="0 0 16 16" fill="none" xmlns="http://www.w3.org/2000/svg">
<g id="Group">
<g id="Group_2">
<path id="Path" d="M13.1456 6.40715V2.66426C13.1456 2.29611 12.8469 1.99731 12.4787 1.99731H11.2402C10.872 1.99731 10.5732 2.29611 10.5732 2.66426V4.20223" stroke="#5B1DEE" stroke-linecap="round" stroke-linejoin="round"/>
<path id="Path_2" d="M1.99805 7.14204L7.13218 2.74154C7.63173 2.31337 8.3687 2.31337 8.86824 2.74154L14.003 7.14204" stroke="#5B1DEE" stroke-linecap="round" stroke-linejoin="round"/>
<path id="Path_3" d="M2.85547 6.40723V12.6685C2.85547 13.4055 3.45238 14.0024 4.18936 14.0024H7.33333" stroke="#5B1DEE" stroke-linecap="round" stroke-linejoin="round"/>
<path id="Path_4" d="M11.6692 14.6692C10.0119 14.6692 8.66797 13.3254 8.66797 11.668C8.66797 10.0106 10.0119 8.66675 11.6692 8.66675C13.3272 8.66675 14.6705 10.0106 14.6705 11.668C14.6705 13.3254 13.3272 14.6692 11.6692 14.6692" stroke="#5B1DEE" stroke-linecap="round" stroke-linejoin="round"/>
<path id="Path_5" d="M12.8551 11.0752L11.3731 12.5571L10.4834 11.6681" stroke="#5B1DEE" stroke-linecap="round" stroke-linejoin="round"/>
</g>
</g>
</svg>
