<svg width="62" height="62" viewBox="0 0 62 62" fill="none" xmlns="http://www.w3.org/2000/svg">
<g filter="url(#filter0_dd_385_25373)">
<rect x="11" y="11" width="40" height="40" rx="20" fill="#5B1DEE"/>
<rect x="11" y="11" width="40" height="40" rx="20" fill="url(#paint0_linear_385_25373)" fill-opacity="0.18"/>
<g filter="url(#filter1_d_385_25373)">
<path fill-rule="evenodd" clip-rule="evenodd" d="M22 36V30.1C22 28.733 22.6214 27.4401 23.6889 26.5861L28.1889 22.9861C29.8323 21.6713 32.1677 21.6713 33.8111 22.9861L38.3111 26.5861C39.3786 27.4401 40 28.733 40 30.1V36C40 38.2091 38.2091 40 36 40H26C23.7909 40 22 38.2091 22 36Z" fill="white"/>
<path fill-rule="evenodd" clip-rule="evenodd" d="M22 36V30.1C22 28.733 22.6214 27.4401 23.6889 26.5861L28.1889 22.9861C29.8323 21.6713 32.1677 21.6713 33.8111 22.9861L38.3111 26.5861C39.3786 27.4401 40 28.733 40 30.1V36C40 38.2091 38.2091 40 36 40H26C23.7909 40 22 38.2091 22 36Z" stroke="#202020" stroke-width="1.5" stroke-linecap="round" stroke-linejoin="round"/>
</g>
<path d="M27 34L29.5 31.5L32 34L35 31" stroke="#202020" stroke-width="1.5" stroke-linecap="round" stroke-linejoin="round"/>
</g>
<defs>
<filter id="filter0_dd_385_25373" x="0.333331" y="0.333331" width="61.3333" height="61.3333" filterUnits="userSpaceOnUse" color-interpolation-filters="sRGB">
<feFlood flood-opacity="0" result="BackgroundImageFix"/>
<feColorMatrix in="SourceAlpha" type="matrix" values="0 0 0 0 0 0 0 0 0 0 0 0 0 0 0 0 0 0 127 0" result="hardAlpha"/>
<feOffset dx="2.66667" dy="2.66667"/>
<feGaussianBlur stdDeviation="4"/>
<feColorMatrix type="matrix" values="0 0 0 0 0.733333 0 0 0 0 0.764706 0 0 0 0 0.807843 0 0 0 0.6 0"/>
<feBlend mode="normal" in2="BackgroundImageFix" result="effect1_dropShadow_385_25373"/>
<feColorMatrix in="SourceAlpha" type="matrix" values="0 0 0 0 0 0 0 0 0 0 0 0 0 0 0 0 0 0 127 0" result="hardAlpha"/>
<feOffset dx="-2.66667" dy="-2.66667"/>
<feGaussianBlur stdDeviation="4"/>
<feColorMatrix type="matrix" values="0 0 0 0 0.992157 0 0 0 0 1 0 0 0 0 1 0 0 0 0.8 0"/>
<feBlend mode="normal" in2="effect1_dropShadow_385_25373" result="effect2_dropShadow_385_25373"/>
<feBlend mode="normal" in="SourceGraphic" in2="effect2_dropShadow_385_25373" result="shape"/>
</filter>
<filter id="filter1_d_385_25373" x="21.25" y="21.25" width="20.5" height="20.5" filterUnits="userSpaceOnUse" color-interpolation-filters="sRGB">
<feFlood flood-opacity="0" result="BackgroundImageFix"/>
<feColorMatrix in="SourceAlpha" type="matrix" values="0 0 0 0 0 0 0 0 0 0 0 0 0 0 0 0 0 0 127 0" result="hardAlpha"/>
<feOffset dx="1" dy="1"/>
<feComposite in2="hardAlpha" operator="out"/>
<feColorMatrix type="matrix" values="0 0 0 0 0 0 0 0 0 0 0 0 0 0 0 0 0 0 1 0"/>
<feBlend mode="normal" in2="BackgroundImageFix" result="effect1_dropShadow_385_25373"/>
<feBlend mode="normal" in="SourceGraphic" in2="effect1_dropShadow_385_25373" result="shape"/>
</filter>
<linearGradient id="paint0_linear_385_25373" x1="31" y1="11" x2="31" y2="36.8333" gradientUnits="userSpaceOnUse">
<stop stop-color="white"/>
<stop offset="1" stop-color="white" stop-opacity="0"/>
</linearGradient>
</defs>
</svg>
