<svg width="32" height="32" viewBox="0 0 32 32" fill="none" xmlns="http://www.w3.org/2000/svg">
<g id="Group">
<g id="Group_2">
<path id="Path" d="M14.2969 9.81745L14.8744 9.23987C16.4378 7.67655 18.9708 7.67655 20.5341 9.23987L26.554 15.2597C28.4895 17.1952 28.4895 20.3325 26.554 22.268L26.2592 22.5628C24.3237 24.4982 21.1864 24.4982 19.2509 22.5628L14.565 17.8768" stroke="#202020" stroke-width="1.5" stroke-linecap="round" stroke-linejoin="round"/>
<path id="Path_2" d="M7.33251 19.3522C5.36235 18.3678 3.99512 16.3523 3.99512 13.9993C3.99512 10.6846 6.6829 7.99683 9.99762 7.99683C13.3123 7.99683 16.0001 10.6846 16.0001 13.9993C16.0001 16.351 14.6342 18.3665 12.6654 19.3509V19.3482L12.6641 25.3427C12.6627 25.6949 12.5227 26.0323 12.2732 26.2804L10.9367 27.617C10.4165 28.1359 9.57611 28.1345 9.05723 27.6157L7.71934 26.2751C7.4699 26.0257 7.32984 25.6869 7.32984 25.3347L7.33251 19.3496" stroke="#202020" stroke-width="1.5" stroke-linecap="round" stroke-linejoin="round"/>
<path id="Path_3" d="M9.99805 13.6658V7.66331C9.99805 5.63713 11.6401 3.99512 13.6662 3.99512V3.99512C15.6924 3.99512 17.3344 5.63713 17.3344 7.66331V8.08615" stroke="#202020" stroke-width="1.5" stroke-linecap="round" stroke-linejoin="round"/>
<path id="Path_4" d="M9.99633 13.6657C9.81225 13.6657 9.66285 13.8151 9.66552 13.9992C9.66552 14.1833 9.81492 14.3327 9.99899 14.3327C10.1831 14.3327 10.3325 14.1833 10.3325 13.9992C10.3311 13.8151 10.1817 13.6657 9.99633 13.6657" stroke="#202020" stroke-width="1.5" stroke-linecap="round" stroke-linejoin="round"/>
</g>
</g>
</svg>
