<svg width="32" height="32" viewBox="0 0 32 32" fill="none" xmlns="http://www.w3.org/2000/svg">
<g id="Star">
<path id="Vector" d="M29.9004 12.1612C29.7793 11.788 29.5511 11.4586 29.2441 11.2141C28.9372 10.9696 28.5651 10.8208 28.1742 10.7862L20.7504 10.1462L17.8404 3.22624C17.6889 2.86314 17.4334 2.55298 17.1059 2.33482C16.7785 2.11665 16.3939 2.00024 16.0004 2.00024C15.607 2.00024 15.2223 2.11665 14.8949 2.33482C14.5675 2.55298 14.3119 2.86314 14.1604 3.22624L11.2592 10.1462L3.82667 10.79C3.43421 10.823 3.06023 10.9711 2.75162 11.2158C2.443 11.4604 2.2135 11.7908 2.09188 12.1654C1.97027 12.54 1.96196 12.9421 2.06799 13.3214C2.17402 13.7007 2.38968 14.0403 2.68792 14.2975L8.32667 19.225L6.63667 26.5425C6.5473 26.9254 6.5728 27.3262 6.70998 27.6947C6.84715 28.0632 7.08991 28.3831 7.40791 28.6144C7.72591 28.8457 8.10503 28.9782 8.49789 28.9951C8.89074 29.0121 9.27988 28.913 9.61667 28.71L15.9917 24.835L22.3804 28.71C22.7172 28.913 23.1063 29.0121 23.4992 28.9951C23.8921 28.9782 24.2712 28.8457 24.5892 28.6144C24.9072 28.3831 25.1499 28.0632 25.2871 27.6947C25.4243 27.3262 25.4498 26.9254 25.3604 26.5425L23.6717 19.2175L29.3092 14.2975C29.6074 14.0394 29.8226 13.6989 29.9278 13.3188C30.033 12.9387 30.0235 12.5359 29.9004 12.1612ZM27.9979 12.7862L22.3604 17.7062C22.086 17.9449 21.8819 18.2539 21.77 18.5999C21.6582 18.9459 21.6427 19.3159 21.7254 19.67L23.4192 27L17.0354 23.125C16.724 22.9353 16.3663 22.835 16.0017 22.835C15.637 22.835 15.2794 22.9353 14.9679 23.125L8.59292 27L10.2754 19.675C10.3581 19.3209 10.3427 18.9509 10.2308 18.6049C10.1189 18.2589 9.91479 17.9499 9.64042 17.7112L4.00042 12.7937C3.99996 12.79 3.99996 12.7862 4.00042 12.7825L11.4304 12.14C11.7932 12.108 12.1403 11.9776 12.4344 11.7628C12.7285 11.5481 12.9583 11.2571 13.0992 10.9212L16.0004 4.00999L18.9004 10.9212C19.0413 11.2571 19.2711 11.5481 19.5652 11.7628C19.8593 11.9776 20.2064 12.108 20.5692 12.14L28.0004 12.7825C28.0004 12.7825 28.0004 12.79 28.0004 12.7912L27.9979 12.7862Z" fill="#343330"/>
</g>
</svg>
