<svg width="32" height="32" viewBox="0 0 32 32" fill="none" xmlns="http://www.w3.org/2000/svg">
<g id="Group">
<g id="Group_2">
<path id="Path" d="M21.076 10.9236C21.2692 11.1168 21.2692 11.43 21.076 11.6231C20.8828 11.8163 20.5696 11.8163 20.3765 11.6231C20.1833 11.43 20.1833 11.1168 20.3765 10.9236C20.5696 10.7304 20.8828 10.7304 21.076 10.9236" stroke="#202020" stroke-width="1.5" stroke-linecap="round" stroke-linejoin="round"/>
<path id="Path_2" fill-rule="evenodd" clip-rule="evenodd" d="M18.0157 5.33325H23.8623C25.4117 5.33325 26.6663 6.58792 26.6663 8.13592V13.9826C26.6663 14.7266 26.3703 15.4386 25.845 15.9653L14.6317 27.1786C13.537 28.2733 11.7623 28.2733 10.6677 27.1786L4.821 21.3319C3.72633 20.2373 3.72633 18.4626 4.821 17.3679L16.0343 6.15459C16.5597 5.62925 17.273 5.33325 18.0157 5.33325Z" stroke="#202020" stroke-width="1.5" stroke-linecap="round" stroke-linejoin="round"/>
<path id="Path_3" d="M7.74609 14.4534L17.5461 24.2534" stroke="#202020" stroke-width="1.5" stroke-linecap="round" stroke-linejoin="round"/>
</g>
</g>
</svg>
