<svg width="24" height="24" viewBox="0 0 24 24" fill="none" xmlns="http://www.w3.org/2000/svg">
<path fill-rule="evenodd" clip-rule="evenodd" d="M18 10L6.00005 10V4.11111C6.00005 3.49747 6.49749 3.00001 7.11114 3L16.8889 3C17.1836 2.99999 17.4662 3.11706 17.6746 3.32543C17.883 3.5338 18 3.81642 18 4.11111V10Z" stroke="#323232" stroke-width="1.5" stroke-linecap="round" stroke-linejoin="round"/>
<path fill-rule="evenodd" clip-rule="evenodd" d="M5.5 10H18.5C18.7761 10 19 10.2239 19 10.5V11C19 12.1046 18.1046 13 17 13H7C5.89543 13 5 12.1046 5 11V10.5C5 10.2239 5.22386 10 5.5 10Z" stroke="#323232" stroke-width="1.5" stroke-linecap="round" stroke-linejoin="round"/>
<path d="M2 21V13.5C2 13.2239 2.22386 13 2.5 13H21.5C21.7761 13 22 13.2239 22 13.5V21H14V13" stroke="#323232" stroke-width="1.5" stroke-linecap="round" stroke-linejoin="round"/>
<path d="M22 17H14" stroke="#323232" stroke-width="1.5" stroke-linecap="round" stroke-linejoin="round"/>
</svg>
