<svg width="24" height="24" viewBox="0 0 24 24" fill="none" xmlns="http://www.w3.org/2000/svg">
<path d="M7.99832 8.99871V7.99829" stroke="#323232" stroke-width="1.5" stroke-linecap="round" stroke-linejoin="round"/>
<path d="M17.0021 10.9996H18.0025" stroke="#323232" stroke-width="1.5" stroke-linecap="round" stroke-linejoin="round"/>
<path d="M17.0021 14.0008H18.0025" stroke="#323232" stroke-width="1.5" stroke-linecap="round" stroke-linejoin="round"/>
<path d="M17.0021 17.002H18.0025" stroke="#323232" stroke-width="1.5" stroke-linecap="round" stroke-linejoin="round"/>
<path fill-rule="evenodd" clip-rule="evenodd" d="M14.0008 7.9983V18.0025H3.99666C3.44415 18.0025 2.99625 18.4504 2.99625 19.0029V20.0033C2.99625 20.5558 3.44415 21.0037 3.99666 21.0037H19.0029C20.1079 21.0037 21.0037 20.1079 21.0037 19.0029V4.99705C21.0037 3.89202 20.1079 2.99622 19.0029 2.99622H4.99708C3.89205 2.99622 2.99625 3.89202 2.99625 4.99705V5.99747C2.99625 7.1025 3.89205 7.9983 4.99708 7.9983H14.0008Z" stroke="#323232" stroke-width="1.5" stroke-linecap="round" stroke-linejoin="round"/>
<path fill-rule="evenodd" clip-rule="evenodd" d="M5.99749 12H9.99915C10.5517 12 10.9996 12.4479 10.9996 13.0004V15.0013C10.9996 16.6588 9.65586 18.0025 7.99832 18.0025V18.0025C6.34078 18.0025 4.99707 16.6588 4.99707 15.0013V13.0004C4.99707 12.4479 5.44497 12 5.99749 12Z" stroke="#323232" stroke-width="1.5" stroke-linecap="round" stroke-linejoin="round"/>
<path d="M5.99751 12H3.99667" stroke="#323232" stroke-width="1.5" stroke-linecap="round" stroke-linejoin="round"/>
</svg>
