<svg width="24" height="24" viewBox="0 0 24 24" fill="none" xmlns="http://www.w3.org/2000/svg">
<path fill-rule="evenodd" clip-rule="evenodd" d="M3 15H13V21H3C2.44772 21 2 20.5523 2 20V16C2 15.4477 2.44772 15 3 15Z" stroke="#323232" stroke-width="1.5" stroke-linecap="round" stroke-linejoin="round"/>
<path fill-rule="evenodd" clip-rule="evenodd" d="M14 3H21C21.5523 3 22 3.44772 22 4V20C22 20.5523 21.5523 21 21 21H13V4C13 3.44772 13.4477 3 14 3Z" stroke="#323232" stroke-width="1.5" stroke-linecap="round" stroke-linejoin="round"/>
<path fill-rule="evenodd" clip-rule="evenodd" d="M8.49951 3H3.50051C3.04165 3 2.64166 3.3123 2.53037 3.75746L2.03037 5.75746C1.95569 6.0562 2.0228 6.37269 2.2123 6.6154C2.4018 6.85812 2.69256 6.99999 3.00049 7H8.99949C9.30743 7 9.59819 6.85813 9.7877 6.61541C9.9772 6.37269 10.0443 6.0562 9.96963 5.75746L9.46963 3.75746C9.35834 3.3123 8.95837 3.00001 8.49951 3Z" stroke="#323232" stroke-width="1.5" stroke-linecap="round" stroke-linejoin="round"/>
<path d="M22 11H13" stroke="#323232" stroke-width="1.5" stroke-linecap="round" stroke-linejoin="round"/>
<path d="M3 10V11" stroke="#323232" stroke-width="1.5" stroke-linecap="round" stroke-linejoin="round"/>
<path d="M6 10V11" stroke="#323232" stroke-width="1.5" stroke-linecap="round" stroke-linejoin="round"/>
<path d="M9 10V11" stroke="#323232" stroke-width="1.5" stroke-linecap="round" stroke-linejoin="round"/>
</svg>
