<svg width="24" height="24" viewBox="0 0 24 24" fill="none" xmlns="http://www.w3.org/2000/svg">
<path d="M18.364 4.31802C21.8787 6.07538 21.8787 8.92462 18.364 10.682C14.8493 12.4393 9.1508 12.4393 5.6361 10.682C2.12138 8.92462 2.12138 6.07538 5.6361 4.31802C9.15082 2.56066 14.8493 2.56066 18.364 4.31802" stroke="#323232" stroke-width="1.5" stroke-linecap="round" stroke-linejoin="round"/>
<path d="M20.5 13.501C18.689 14.896 15.576 15.828 12 15.828C8.424 15.828 5.311 14.896 3.5 13.501" stroke="#323232" stroke-width="1.5" stroke-linecap="round" stroke-linejoin="round"/>
<path d="M20.5 17.673C18.689 19.068 15.576 20 12 20C8.424 20 5.311 19.068 3.5 17.673" stroke="#323232" stroke-width="1.5" stroke-linecap="round" stroke-linejoin="round"/>
<path d="M8.34799 7C9.12599 6.401 10.464 6 12 6C13.536 6 14.874 6.401 15.652 7" stroke="#323232" stroke-width="1.5" stroke-linecap="round" stroke-linejoin="round"/>
</svg>
