<svg width="24" height="24" viewBox="0 0 24 24" fill="none" xmlns="http://www.w3.org/2000/svg">
<path d="M16.9426 4.99703H5.05634" stroke="#323232" stroke-width="1.5" stroke-linecap="round" stroke-linejoin="round"/>
<path d="M10.9996 16.0017V8.99878" stroke="#323232" stroke-width="1.5" stroke-linecap="round" stroke-linejoin="round"/>
<path d="M9.99915 13.0005H12" stroke="#323232" stroke-width="1.5" stroke-linecap="round" stroke-linejoin="round"/>
<path d="M9.99915 9.99911H12" stroke="#323232" stroke-width="1.5" stroke-linecap="round" stroke-linejoin="round"/>
<path d="M16.2356 14.0008H17.7295C18.7643 14.0008 19.6284 13.2117 19.7221 12.1812L19.9949 9.1799C20.0458 8.62006 19.8589 8.06463 19.4798 7.64952C19.1007 7.23441 18.5645 6.99792 18.0023 6.99792H16.8722" stroke="#323232" stroke-width="1.5" stroke-linecap="round" stroke-linejoin="round"/>
<path d="M16.0537 16.0017L16.9938 5.65999C17.033 5.22965 16.9317 4.79822 16.7053 4.43021L16.3791 3.90027C15.6508 2.71678 14.3607 1.99585 12.9711 1.99585H9.02802C7.63841 1.99585 6.3483 2.7168 5.62002 3.90027L5.29388 4.43021C5.06741 4.79823 4.96617 5.22967 5.00529 5.66001L5.94547 16.0017H6.04952" stroke="#323232" stroke-width="1.5" stroke-linecap="round" stroke-linejoin="round"/>
<path fill-rule="evenodd" clip-rule="evenodd" d="M17.9688 19.5867L17.6232 17.6856C17.4459 16.7105 16.5966 16.0017 15.6056 16.0017H6.39358C5.40252 16.0017 4.55327 16.7105 4.37598 17.6856L4.03032 19.5867C3.92154 20.185 4.08389 20.8007 4.47351 21.2675C4.86313 21.7343 5.43984 22.0042 6.04792 22.0042H15.9512C16.5593 22.0042 17.136 21.7343 17.5256 21.2675C17.9153 20.8007 18.0776 20.185 17.9688 19.5867Z" stroke="#323232" stroke-width="1.5" stroke-linecap="round" stroke-linejoin="round"/>
<path d="M11.0496 18.9301C11.0496 18.9577 11.0272 18.98 10.9996 18.98C10.972 18.98 10.9496 18.9576 10.9496 18.93C10.9496 18.9024 10.9719 18.88 10.9995 18.88C11.0128 18.88 11.0256 18.8853 11.035 18.8946C11.0444 18.904 11.0496 18.9168 11.0496 18.9301" stroke="#323232" stroke-width="1.5" stroke-linecap="round" stroke-linejoin="round"/>
</svg>
