<svg width="24" height="24" viewBox="0 0 24 24" fill="none" xmlns="http://www.w3.org/2000/svg">
<path fill-rule="evenodd" clip-rule="evenodd" d="M17 18H7C6.448 18 6 17.552 6 17V12C6 11.448 6.448 11 7 11H17C17.552 11 18 11.448 18 12V17C18 17.552 17.552 18 17 18Z" stroke="#323232" stroke-width="1.5" stroke-linecap="round" stroke-linejoin="round"/>
<path fill-rule="evenodd" clip-rule="evenodd" d="M5 21H19C20.105 21 21 20.105 21 19V5C21 3.895 20.105 3 19 3H5C3.895 3 3 3.895 3 5V19C3 20.105 3.895 21 5 21Z" stroke="#323232" stroke-width="1.5" stroke-linecap="round" stroke-linejoin="round"/>
<path d="M21 8H3" stroke="#323232" stroke-width="1.5" stroke-linecap="round" stroke-linejoin="round"/>
</svg>
