<svg width="24" height="24" viewBox="0 0 24 24" fill="none" xmlns="http://www.w3.org/2000/svg">
<path d="M15.0012 10.9996V3.34641C15.0018 2.60075 15.6061 1.9964 16.3518 1.99585H16.7519" stroke="#323232" stroke-width="1.5" stroke-linecap="round" stroke-linejoin="round"/>
<path d="M8.99872 10.9996V3.34641C8.99927 2.60075 9.60361 1.9964 10.3493 1.99585H10.7494" stroke="#323232" stroke-width="1.5" stroke-linecap="round" stroke-linejoin="round"/>
<path d="M8.99872 9.49899H15.0012" stroke="#323232" stroke-width="1.5" stroke-linecap="round" stroke-linejoin="round"/>
<path d="M8.99872 5.99752H15.0012" stroke="#323232" stroke-width="1.5" stroke-linecap="round" stroke-linejoin="round"/>
<path d="M5.99747 5.99744C4.33992 5.99744 2.99622 7.34114 2.99622 8.99869V18.0024C2.99622 19.66 4.33992 21.0037 5.99747 21.0037H18.0025C19.66 21.0037 21.0037 19.66 21.0037 18.0024V8.99869C21.0037 7.34114 19.66 5.99744 18.0025 5.99744" stroke="#323232" stroke-width="1.5" stroke-linecap="round" stroke-linejoin="round"/>
<path d="M6.59778 13.8688C7.74427 14.378 9.05279 14.378 10.1993 13.8688C11.3458 13.3595 12.6543 13.3595 13.8008 13.8688C14.9473 14.378 16.2558 14.378 17.4023 13.8688" stroke="#323232" stroke-width="1.5" stroke-linecap="round" stroke-linejoin="round"/>
<path d="M6.59778 17.3843C7.74427 17.8935 9.05279 17.8935 10.1993 17.3843C11.3458 16.875 12.6543 16.875 13.8008 17.3843C14.9473 17.8935 16.2558 17.8935 17.4023 17.3843" stroke="#323232" stroke-width="1.5" stroke-linecap="round" stroke-linejoin="round"/>
</svg>
