<svg width="24" height="24" viewBox="0 0 24 24" fill="none" xmlns="http://www.w3.org/2000/svg">
<rect width="18.0075" height="18.0075" rx="5" transform="matrix(1 0 0 -1 2.99622 21.0038)" stroke="#323232" stroke-width="1.5" stroke-linecap="round" stroke-linejoin="round"/>
<path d="M15.3244 15.6781L15.3248 15.6786C15.4226 15.7761 15.5808 15.7759 15.6784 15.6782C15.776 15.5805 15.7759 15.4223 15.6783 15.3247C15.5807 15.227 15.4224 15.227 15.3247 15.3245C15.227 15.4221 15.2269 15.5804 15.3244 15.6781" stroke="#323232" stroke-width="1.5" stroke-linecap="round" stroke-linejoin="round"/>
<path d="M21.0037 13.834V12.795C21.0037 11.5229 20.4984 10.3028 19.5988 9.40322C18.6992 8.50366 17.4791 7.9983 16.207 7.9983V7.9983C14.8067 7.9983 13.4763 8.61018 12.565 9.67335L9.02385 13.8047C8.37292 14.5641 7.42265 15.0012 6.42244 15.0012V15.0012C4.5302 15.0012 2.99622 13.4672 2.99622 11.575V9.16543" stroke="#323232" stroke-width="1.5" stroke-linecap="round" stroke-linejoin="round"/>
</svg>
