<svg width="24" height="24" viewBox="0 0 24 24" fill="none" xmlns="http://www.w3.org/2000/svg">
<path fill-rule="evenodd" clip-rule="evenodd" d="M15.1713 14.5741C15.2488 14.5419 15.3378 14.5568 15.4006 14.6123C15.4634 14.6679 15.489 14.7544 15.4665 14.8352C15.3058 15.4589 14.9811 16.0282 14.5261 16.4839C13.644 17.4057 12.3321 17.7779 11.0973 17.4567C9.86259 17.1356 8.89834 16.1713 8.57717 14.9366C8.256 13.7018 8.62822 12.3899 9.54999 11.5078C10.0052 11.0524 10.5742 10.7273 11.1977 10.5664C11.2786 10.5431 11.3657 10.5684 11.4215 10.6314C11.4773 10.6945 11.4918 10.7841 11.4588 10.8616C10.9202 11.927 11.1268 13.2178 11.9709 14.062C12.8151 14.9061 14.1059 15.1127 15.1713 14.5741V14.5741Z" stroke="#323232" stroke-width="1.5" stroke-linecap="round" stroke-linejoin="round"/>
<rect x="3.9967" y="6.99792" width="16.0067" height="14.0058" rx="3" stroke="#323232" stroke-width="1.5" stroke-linecap="round" stroke-linejoin="round"/>
<path d="M3.9967 9.99918V8.08938C3.99649 6.84074 4.76941 5.7224 5.93751 5.28121L14.294 2.1259C14.9086 1.89366 15.598 1.97791 16.1385 2.35132C16.679 2.72473 17.0018 3.3397 17.0021 3.99668V6.99793" stroke="#323232" stroke-width="1.5" stroke-linecap="round" stroke-linejoin="round"/>
</svg>
