<svg width="44" height="44" viewBox="0 0 44 44" fill="none" xmlns="http://www.w3.org/2000/svg">
<g filter="url(#filter0_dd_744_30723)">
<rect x="8" y="8" width="28" height="28" rx="14" fill="#5B1DEE"/>
<path d="M22.148 20.6028C22.2293 20.6842 22.2293 20.8161 22.148 20.8975C22.0666 20.9788 21.9347 20.9788 21.8533 20.8975C21.772 20.8161 21.772 20.6842 21.8533 20.6028C21.9347 20.5215 22.0666 20.5215 22.148 20.6028" stroke="white" stroke-width="1.5" stroke-linecap="round" stroke-linejoin="round"/>
<path d="M25.48 20.6028C25.5614 20.6842 25.5614 20.8161 25.48 20.8975C25.3986 20.9788 25.2667 20.9788 25.1854 20.8975C25.104 20.8161 25.104 20.6842 25.1854 20.6028C25.2667 20.5215 25.3986 20.5215 25.48 20.6028" stroke="white" stroke-width="1.5" stroke-linecap="round" stroke-linejoin="round"/>
<path d="M18.814 20.6028C18.8953 20.6842 18.8953 20.8161 18.814 20.8975C18.7326 20.9788 18.6007 20.9788 18.5194 20.8975C18.438 20.8161 18.438 20.6842 18.5194 20.6028C18.6007 20.5215 18.7326 20.5215 18.814 20.6028" stroke="white" stroke-width="1.5" stroke-linecap="round" stroke-linejoin="round"/>
<path d="M22 29.5L18.6667 26.1675V26.1667H16.1667C15.2458 26.1667 14.5 25.4208 14.5 24.5V16.1667C14.5 15.2458 15.2458 14.5 16.1667 14.5H27.8333C28.7542 14.5 29.5 15.2458 29.5 16.1667V24.5C29.5 25.4208 28.7542 26.1667 27.8333 26.1667H25.3333L22 29.4992" stroke="white" stroke-width="1.5" stroke-linecap="round" stroke-linejoin="round"/>
</g>
<defs>
<filter id="filter0_dd_744_30723" x="-9.53674e-07" y="-9.53674e-07" width="44" height="44" filterUnits="userSpaceOnUse" color-interpolation-filters="sRGB">
<feFlood flood-opacity="0" result="BackgroundImageFix"/>
<feColorMatrix in="SourceAlpha" type="matrix" values="0 0 0 0 0 0 0 0 0 0 0 0 0 0 0 0 0 0 127 0" result="hardAlpha"/>
<feOffset dx="-2" dy="-2"/>
<feGaussianBlur stdDeviation="3"/>
<feColorMatrix type="matrix" values="0 0 0 0 0.992157 0 0 0 0 1 0 0 0 0 1 0 0 0 0.8 0"/>
<feBlend mode="normal" in2="BackgroundImageFix" result="effect1_dropShadow_744_30723"/>
<feColorMatrix in="SourceAlpha" type="matrix" values="0 0 0 0 0 0 0 0 0 0 0 0 0 0 0 0 0 0 127 0" result="hardAlpha"/>
<feOffset dx="2" dy="2"/>
<feGaussianBlur stdDeviation="3"/>
<feColorMatrix type="matrix" values="0 0 0 0 0.733333 0 0 0 0 0.764706 0 0 0 0 0.807843 0 0 0 0.6 0"/>
<feBlend mode="normal" in2="effect1_dropShadow_744_30723" result="effect2_dropShadow_744_30723"/>
<feBlend mode="normal" in="SourceGraphic" in2="effect2_dropShadow_744_30723" result="shape"/>
</filter>
</defs>
</svg>
