<svg width="861" height="329" viewBox="0 0 861 329" fill="none" xmlns="http://www.w3.org/2000/svg">
<path d="M296.628 140.008C305.237 154.636 313.076 171.923 307.967 188.091L308.107 188.231C305.139 197.609 298.245 204.974 291.438 212.246C290.218 213.549 289.001 214.849 287.809 216.157C280.041 224.766 272.691 235.335 273.672 246.883C274.298 253.778 277.644 259.6 280.999 265.437C283.263 269.376 285.531 273.322 286.97 277.609C287.511 279.244 287.933 280.903 288.242 282.576C317.319 252.432 335.204 211.419 335.204 166.229C335.204 80.9672 271.537 10.5749 189.152 0C188.803 3.53075 188.836 7.07525 189.403 10.5957C191.643 24.2439 201.302 35.3724 211.38 44.751C213.125 46.3753 214.902 47.9828 216.683 49.593C225.181 57.2809 233.751 65.0333 239.306 74.987C247.075 88.9849 247.845 106.412 242.106 121.39C241.226 123.707 240.187 125.962 239.147 128.218C237.705 131.346 236.263 134.474 235.247 137.768C233.427 143.437 232.937 149.807 235.667 155.056C240.076 163.525 251.554 165.414 259.743 161.845C269.892 157.435 273.951 142.948 273.531 132.799C273.395 129.524 272.815 126.279 272.234 123.026C271.921 121.272 271.607 119.516 271.362 117.751C270.662 112.712 270.522 107.462 272.411 102.773C273.321 100.463 279.34 91.8545 282.56 94.5142C283.346 95.2015 283.201 97.9889 283.094 100.075C283.048 100.964 283.008 101.725 283.05 102.143C283.19 104.733 283.61 107.322 284.1 109.912C286.27 120.621 291.169 130.629 296.628 140.008Z" fill="url(#paint0_linear_196_4407)"/>
<path d="M79.8907 23.383C77.2355 30.002 76.3909 36.9636 78.3285 43.8412C82.7378 59.379 90.4367 71.6273 99.3255 85.1354C116.193 110.822 115.423 134.899 105.625 149.737C103.525 152.886 98.4856 159.815 85.3976 160.865C59.011 163.035 62.7908 109.492 62.7908 109.492C4.16308 184.734 27.3368 249.514 43.7274 279.127C16.5642 249.34 0 209.719 0 166.229C0 105.821 31.9585 52.8772 79.8907 23.383Z" fill="url(#paint1_linear_196_4407)"/>
<path d="M143.559 1.28703C134.951 2.05702 126.762 8.07618 122.072 15.3552C117.383 22.6342 113.393 32.0128 115.913 40.2717C117.706 46.2958 120.419 50.4077 123.549 55.1514C124.819 57.0764 126.158 59.1056 127.532 61.4088C136.351 76.1767 138.38 91.0147 126.622 114.811C130.808 110.469 138.201 102.254 143.684 96.1607C145.535 94.1032 147.17 92.2875 148.389 90.9446C153.218 85.6254 155.738 80.3761 158.397 73.657C162.527 63.2985 158.957 51.9601 155.738 44.891C153.988 41.1815 151.748 37.752 149.089 34.6024C145.449 30.333 142.019 25.9237 140.06 20.7443C137.61 14.1652 138.24 5.83643 143.559 1.28703Z" fill="url(#paint2_linear_196_4407)"/>
<path fill-rule="evenodd" clip-rule="evenodd" d="M244.985 215.228C248.379 212.295 251.808 209.331 254.284 205.589V205.449C257.434 200.759 258.834 194.25 255.964 189.351C251.274 200.689 239.306 212.938 227.618 202.159C222.648 197.61 220.409 190.681 221.249 183.962C221.808 179.482 222.299 175.073 219.919 171.503C217.331 167.663 212.727 166.636 208.021 165.586C204.836 164.876 201.605 164.155 198.922 162.545C191.643 158.205 190.033 147.987 192.203 139.798C193.481 134.771 195.822 130.159 198.169 125.536C199.678 122.563 201.189 119.586 202.421 116.491C203.188 114.591 204.02 112.712 204.858 110.821C209.296 100.797 213.892 90.4167 209.77 74.6369C205.151 56.6494 180.724 43.4213 180.724 43.4213C181.535 44.8741 182.383 46.3472 183.24 47.8376C192.754 64.3685 203.5 83.0414 178.205 100.183C160.077 112.502 148.529 126.01 141.18 137.488C133.691 149.247 129.491 162.895 129.771 176.823C130.611 220.917 96.5258 222.946 96.5258 222.946C96.2773 222.946 95.9433 222.963 95.5345 222.984C89.6098 223.284 67.9495 224.381 62.5807 186.341C62.5807 186.341 35.7743 251.922 100.795 302.385C128.791 324.152 171.136 335.071 205.291 325.412C218.519 321.633 231.397 315.124 240.076 304.485C248.755 293.847 252.604 278.589 247.355 265.92C245.779 262.026 243.404 258.531 241.024 255.029C239.811 253.243 238.597 251.456 237.486 249.613C234.127 244.223 231.607 237.784 232.867 231.555C233.987 226.026 238.046 221.477 242.246 217.627C243.143 216.82 244.062 216.025 244.985 215.228ZM194.722 227.285C195.183 223.207 197.374 219.577 199.553 215.967C202.012 211.894 204.455 207.846 204.381 203.208C204.311 197.819 200.672 193.13 196.612 189.63C194.983 188.249 193.255 186.988 191.532 185.73C188.89 183.802 186.26 181.882 184.014 179.551C176.175 171.573 173.725 158.764 177.925 148.406C170.506 150.856 164.767 158.904 162.037 166.183C159.307 173.532 160.077 182.071 164.067 188.79C164.315 189.214 164.576 189.633 164.844 190.05C165.04 190.356 165.239 190.66 165.438 190.965C166.809 193.062 168.181 195.161 168.546 197.609C168.966 200.549 167.846 203.558 166.027 205.938C164.207 208.317 161.827 210.137 159.378 211.887C158.049 212.814 156.696 213.721 155.341 214.629C150.559 217.834 145.752 221.056 141.88 225.255C136.91 230.644 133.551 238.273 135.371 245.342C135.469 245.726 135.589 246.156 135.719 246.626C136.901 250.858 139.756 257.482 134.337 262.963C133.288 264.013 126.079 268.772 114.95 267.443C103.472 266.113 95.1051 257.741 95.1051 257.741C104.157 298.901 156.514 304.561 156.514 304.561C171.673 306.366 184.101 305.237 197.119 296.699C204.678 291.799 210.05 285.027 211.59 276.138C212.71 269.489 211.31 262.56 208.441 256.471C206.926 253.233 204.745 250.227 202.56 247.216C198.181 241.183 193.788 235.13 194.722 227.145V227.285Z" fill="url(#paint3_linear_196_4407)"/>
<path d="M486.551 265.107C451.676 265.107 426.438 260.415 410.839 251.157C395.114 241.899 387.251 223.51 387.251 196.117H429.863C429.863 211.082 435.062 220.847 445.335 225.539C455.607 230.232 469.177 232.641 486.171 232.641C503.038 232.641 516.608 230.993 527.134 227.695C537.534 224.525 542.733 217.93 542.733 208.038C542.733 195.736 536.265 188.381 523.203 185.844C510.14 183.435 492.639 181.152 470.953 179.25C441.911 176.206 420.858 171.387 407.542 164.665C394.226 158.071 387.504 145.135 387.504 125.731C387.504 99.7329 395.621 82.7389 411.727 74.7492C427.833 66.7595 452.437 62.8281 485.41 62.8281C519.018 62.8281 543.748 67.5204 559.854 77.032C575.96 86.5436 583.95 104.425 583.95 130.677H541.465C541.465 116.093 536.138 106.454 525.485 102.016C514.706 97.577 501.263 95.2942 484.903 95.2942C467.782 95.2942 454.085 96.8161 443.559 99.8598C433.033 103.03 427.833 110.513 427.833 122.561C427.833 133.975 434.682 140.696 448.252 142.725C461.821 144.754 478.689 146.657 498.98 148.559C529.671 151.73 551.484 156.676 564.546 163.397C577.482 170.119 583.95 183.435 583.95 203.092C583.95 228.203 576.087 244.816 560.488 252.933C544.762 261.049 520.159 265.107 486.551 265.107Z" fill="url(#paint4_linear_196_4407)"/>
<path d="M754.195 242.533L759.648 235.558L757.112 234.29C751.912 241.519 747.347 246.845 743.542 250.269C739.738 253.693 734.918 256.61 729.085 259.02C717.417 264.093 701.311 266.122 681.654 266.122C660.855 266.122 637.52 263.078 622.175 252.806C611.902 245.957 605.434 235.939 605.434 219.706C605.434 204.36 612.029 194.849 622.175 187.747C627.247 184.322 633.335 181.532 640.31 179.63C654.26 175.825 669.606 174.43 683.81 174.43H749.756V166.568C749.756 151.222 741.133 143.613 727.436 141.077C720.461 139.935 710.315 139.301 696.999 139.301C673.537 139.301 659.84 141.457 651.217 148.432C646.905 151.983 644.622 157.436 644.495 164.792H606.449C606.956 151.983 610.38 142.218 616.721 135.496C622.935 128.775 630.418 124.083 639.042 121.166C647.539 118.376 656.289 116.473 665.04 115.332C673.791 114.191 685.205 113.683 699.028 113.683C724.899 113.683 743.162 115.459 753.688 118.883C764.214 122.434 773.091 128.268 780.574 136.511C788.056 144.754 791.734 155.915 791.734 170.245V264.22H751.278V250.777C751.278 247.987 752.42 244.689 754.195 242.533ZM689.516 241.265C703.847 241.265 717.798 239.87 728.831 235.304C739.864 230.866 748.361 223.13 749.756 215.394L751.151 197.131H687.361C666.308 197.131 647.792 200.936 647.792 219.071C647.792 238.602 668.845 241.265 689.516 241.265Z" fill="url(#paint5_linear_196_4407)"/>
<path d="M818.626 68.0277H860.604L860.731 99.7329H818.753L818.626 68.0277ZM818.753 264.22V114.825H860.731V264.22H818.753Z" fill="url(#paint6_linear_196_4407)"/>
<defs>
<linearGradient id="paint0_linear_196_4407" x1="430.189" y1="328.649" x2="337.358" y2="28.7335" gradientUnits="userSpaceOnUse">
<stop stop-color="#FDDEA8"/>
<stop offset="0.5" stop-color="#FF9B3F"/>
<stop offset="1" stop-color="#DC2546"/>
</linearGradient>
<linearGradient id="paint1_linear_196_4407" x1="430.189" y1="328.649" x2="337.358" y2="28.7335" gradientUnits="userSpaceOnUse">
<stop stop-color="#FDDEA8"/>
<stop offset="0.5" stop-color="#FF9B3F"/>
<stop offset="1" stop-color="#DC2546"/>
</linearGradient>
<linearGradient id="paint2_linear_196_4407" x1="430.189" y1="328.649" x2="337.358" y2="28.7335" gradientUnits="userSpaceOnUse">
<stop stop-color="#FDDEA8"/>
<stop offset="0.5" stop-color="#FF9B3F"/>
<stop offset="1" stop-color="#DC2546"/>
</linearGradient>
<linearGradient id="paint3_linear_196_4407" x1="430.189" y1="328.649" x2="337.358" y2="28.7335" gradientUnits="userSpaceOnUse">
<stop stop-color="#FDDEA8"/>
<stop offset="0.5" stop-color="#FF9B3F"/>
<stop offset="1" stop-color="#DC2546"/>
</linearGradient>
<linearGradient id="paint4_linear_196_4407" x1="430.189" y1="328.649" x2="337.358" y2="28.7335" gradientUnits="userSpaceOnUse">
<stop stop-color="#FDDEA8"/>
<stop offset="0.5" stop-color="#FF9B3F"/>
<stop offset="1" stop-color="#DC2546"/>
</linearGradient>
<linearGradient id="paint5_linear_196_4407" x1="430.189" y1="328.649" x2="337.358" y2="28.7335" gradientUnits="userSpaceOnUse">
<stop stop-color="#FDDEA8"/>
<stop offset="0.5" stop-color="#FF9B3F"/>
<stop offset="1" stop-color="#DC2546"/>
</linearGradient>
<linearGradient id="paint6_linear_196_4407" x1="430.189" y1="328.649" x2="337.358" y2="28.7335" gradientUnits="userSpaceOnUse">
<stop stop-color="#FDDEA8"/>
<stop offset="0.5" stop-color="#FF9B3F"/>
<stop offset="1" stop-color="#DC2546"/>
</linearGradient>
</defs>
</svg>
